<?xml version="1.0" encoding="utf-8"?>
<!-- Generator: Adobe Illustrator 18.1.1, SVG Export Plug-In . SVG Version: 6.00 Build 0)  -->
<svg version="1.1" id="Layer_1" xmlns="http://www.w3.org/2000/svg" xmlns:xlink="http://www.w3.org/1999/xlink" x="0px" y="0px"
	 viewBox="0 0 35.8 35.6" enable-background="new 0 0 35.8 35.6" xml:space="preserve">
<path id="XMLID_548_" fill="#4287C7" d="M17.9,1.5l2.9,5.3c0.2,0.3,0.4,0.4,0.7,0.4c0.2,0,0.5-0.1,0.8-0.2L24.3,6l-1.5,8.2
	c-0.2,0.9,0.1,1.3,0.5,1.3c0.3,0,0.5-0.2,0.7-0.4l3.6-4.1l0.6,2.1c0.1,0.2,0.3,0.5,0.7,0.5c0,0,0.1,0,0.1,0l4.6-1l-1.2,4.4
	c-0.3,1-0.5,1.4,0.3,1.6l1.6,0.8l-7.9,6.4c-0.3,0.2-0.5,0.7-0.4,1.1l0.7,2.3c-2.7-0.3-4.4-0.8-7.1-1.1c0,0,0,0,0,0
	c-0.2,0-0.6,0.4-0.6,0.7l0,5.4h-2.3v-5.4c0-0.3-0.4-0.7-0.6-0.7c0,0,0,0,0,0c-2.7,0.3-4.4,0.8-7.1,1.1l0.7-2.3
	c0.1-0.4,0-0.8-0.4-1.1l-7.9-6.4l1.6-0.8c0.7-0.3,0.5-0.7,0.3-1.6l-1.2-4.4l4.6,1c0,0,0.1,0,0.1,0c0.4,0,0.6-0.3,0.7-0.5L8.2,11
	l3.6,4.1c0.2,0.3,0.5,0.4,0.7,0.4c0.4,0,0.7-0.4,0.5-1.3L11.5,6L13.5,7c0.3,0.1,0.5,0.2,0.8,0.2c0.3,0,0.5-0.1,0.7-0.4L17.9,1.5
	 M17.9,0L17.9,0c-0.6,0-1.1,0.3-1.3,0.8L14,5.6l-1.8-1c-0.2-0.1-0.5-0.2-0.7-0.2c-0.3,0-0.6,0.1-0.9,0.3C10.1,5.1,9.9,5.7,10,6.3
	l1.1,5.7l-1.8-2C9,9.7,8.6,9.5,8.2,9.5c-0.1,0-0.2,0-0.3,0c-0.5,0.1-1,0.5-1.1,1.1l-0.4,1.3l-3.8-0.8c-0.1,0-0.2,0-0.3,0
	c-0.4,0-0.8,0.2-1.1,0.5c-0.4,0.4-0.5,0.9-0.4,1.4l1.2,4.4l0,0.1L0.9,18c-0.5,0.2-0.8,0.7-0.9,1.2c-0.1,0.5,0.1,1,0.5,1.3l7.6,6.2
	l-0.6,1.9c-0.1,0.5,0,1,0.3,1.4c0.3,0.3,0.7,0.5,1.2,0.5c0.1,0,0.1,0,0.2,0c1.4-0.2,2.5-0.4,3.5-0.5c0.8-0.1,1.6-0.3,2.5-0.4v4.4
	c0,0.8,0.7,1.5,1.5,1.5h2.3c0.4,0,0.8-0.2,1.1-0.4c0.3-0.3,0.4-0.7,0.4-1.1l0-4.4c0.9,0.1,1.7,0.3,2.5,0.4c1.1,0.2,2.2,0.4,3.5,0.5
	c0.1,0,0.1,0,0.2,0c0.4,0,0.9-0.2,1.2-0.5c0.3-0.4,0.4-0.9,0.3-1.4l-0.6-1.9l7.6-6.2c0.4-0.3,0.6-0.8,0.5-1.3
	c-0.1-0.5-0.4-1-0.8-1.2l-1.1-0.5l0-0.1l1.2-4.4c0.1-0.5,0-1-0.4-1.4c-0.3-0.3-0.7-0.5-1.1-0.5c-0.1,0-0.2,0-0.3,0l-3.8,0.8
	l-0.4-1.3C28.9,10,28.5,9.6,28,9.5c-0.1,0-0.2,0-0.3,0c-0.4,0-0.8,0.2-1.1,0.5l-1.8,2l1.1-5.7c0.1-0.6-0.1-1.1-0.6-1.5
	c-0.3-0.2-0.6-0.3-0.9-0.3c-0.2,0-0.5,0.1-0.7,0.2l-1.8,1l-2.6-4.8C19,0.3,18.5,0,17.9,0L17.9,0z"/>
</svg>
