<?xml version="1.0" encoding="UTF-8" standalone="no"?>
<svg width="12px" height="12px" viewBox="0 0 12 12" version="1.1" xmlns="http://www.w3.org/2000/svg" xmlns:xlink="http://www.w3.org/1999/xlink">
    <!-- Generator: Sketch 3.7.2 (28276) - http://www.bohemiancoding.com/sketch -->
    <title>Group</title>
    <desc>Created with Sketch.</desc>
    <defs></defs>
    <g id="Page-1" stroke="none" stroke-width="1" fill="none" fill-rule="evenodd">
        <g id="Group">
            <path d="M9.54545455,1.09090909 L2.45454545,1.09090909 C2.07954545,1.09090909 1.75852273,1.22443182 1.49147727,1.49147727 C1.22443182,1.75852273 1.09090909,2.07954545 1.09090909,2.45454545 L1.09090909,9.54545455 C1.09090909,9.92045455 1.22443182,10.2414773 1.49147727,10.5085227 C1.75852273,10.7755682 2.07954545,10.9090909 2.45454545,10.9090909 L9.54545455,10.9090909 C9.92045455,10.9090909 10.2414773,10.7755682 10.5085227,10.5085227 C10.7755682,10.2414773 10.9090909,9.92045455 10.9090909,9.54545455 L10.9090909,2.45454545 C10.9090909,2.07954545 10.7755682,1.75852273 10.5085227,1.49147727 C10.2414773,1.22443182 9.92045455,1.09090909 9.54545455,1.09090909 L9.54545455,1.09090909 Z M12,2.45454545 L12,9.54545455 C12,10.2215909 11.7599432,10.7997159 11.2798295,11.2798295 C10.7997159,11.7599432 10.2215909,12 9.54545455,12 L2.45454545,12 C1.77840909,12 1.20028409,11.7599432 0.720170455,11.2798295 C0.240056818,10.7997159 0,10.2215909 0,9.54545455 L0,2.45454545 C0,1.77840909 0.240056818,1.20028409 0.720170455,0.720170455 C1.20028409,0.240056818 1.77840909,0 2.45454545,0 L9.54545455,0 C10.2215909,0 10.7997159,0.240056818 11.2798295,0.720170455 C11.7599432,1.20028409 12,1.77840909 12,2.45454545 L12,2.45454545 Z" id="Shape" fill="#4187C7"></path>
            <path d="M9.54545455,1.09090909 L2.45454545,1.09090909 C2.07954545,1.09090909 1.75852273,1.22443182 1.49147727,1.49147727 C1.22443182,1.75852273 1.09090909,2.07954545 1.09090909,2.45454545 L1.09090909,9.54545455 C1.09090909,9.92045455 1.22443182,10.2414773 1.49147727,10.5085227 C1.75852273,10.7755682 2.07954545,10.9090909 2.45454545,10.9090909 L9.54545455,10.9090909 C9.92045455,10.9090909 10.2414773,10.7755682 10.5085227,10.5085227 C10.7755682,10.2414773 10.9090909,9.92045455 10.9090909,9.54545455 L10.9090909,2.45454545 C10.9090909,2.07954545 10.7755682,1.75852273 10.5085227,1.49147727 C10.2414773,1.22443182 9.92045455,1.09090909 9.54545455,1.09090909 L9.54545455,1.09090909 Z" id="Shape" fill="#FFFFFF"></path>
        </g>
    </g>
</svg>