<?xml version="1.0" encoding="UTF-8" standalone="no"?>
<svg width="15px" height="12px" viewBox="0 0 15 12" version="1.1" xmlns="http://www.w3.org/2000/svg" xmlns:xlink="http://www.w3.org/1999/xlink">
    <!-- Generator: Sketch 3.7.2 (28276) - http://www.bohemiancoding.com/sketch -->
    <title>Group</title>
    <desc>Created with Sketch.</desc>
    <defs></defs>
    <g id="Page-1" stroke="none" stroke-width="1" fill="none" fill-rule="evenodd">
        <g id="Group">
            <path d="M10.4545455,1 L3.36363636,1 C2.98863636,1 2.66761364,1.13352273 2.40056818,1.40056818 C2.13352273,1.66761364 2,1.98863636 2,2.36363636 L2,9.45454545 C2,9.82954545 2.13352273,10.1505682 2.40056818,10.4176136 C2.66761364,10.6846591 2.98863636,10.8181818 3.36363636,10.8181818 L10.4545455,10.8181818 C10.8295455,10.8181818 11.1505682,10.6846591 11.4176136,10.4176136 C11.6846591,10.1505682 11.8181818,9.82954545 11.8181818,9.45454545 L11.8181818,2.36363636 C11.8181818,1.98863636 11.6846591,1.66761364 11.4176136,1.40056818 C11.1505682,1.13352273 10.8295455,1 10.4545455,1 L10.4545455,1 Z" id="Shape" fill="#FFFFFF"></path>
            <path d="M12,6.83522727 L12,9.54545455 C12,10.2215909 11.7599432,10.7997159 11.2798295,11.2798295 C10.7997159,11.7599432 10.2215909,12 9.54545455,12 L2.45454545,12 C1.77840909,12 1.20028409,11.7599432 0.720170455,11.2798295 C0.240056818,10.7997159 -1.42108547e-14,10.2215909 -1.42108547e-14,9.54545455 L-1.42108547e-14,2.45454545 C-1.42108547e-14,1.77840909 0.240056818,1.20028409 0.720170455,0.720170455 C1.20028409,0.240056818 1.77840909,0 2.45454545,0 L9.54545455,0 C9.90340909,0 10.2357955,0.0710227273 10.5426136,0.213068182 C10.6278409,0.252840909 10.6789773,0.318181818 10.6960227,0.409090909 C10.7130682,0.505681818 10.6875,0.588068182 10.6193182,0.65625 L10.2017045,1.07386364 C10.1448864,1.13068182 10.0795455,1.15909091 10.0056818,1.15909091 C9.98863636,1.15909091 9.96306818,1.15340909 9.92897727,1.14204545 C9.79829545,1.10795455 9.67045455,1.09090909 9.54545455,1.09090909 L2.45454545,1.09090909 C2.07954545,1.09090909 1.75852273,1.22443182 1.49147727,1.49147727 C1.22443182,1.75852273 1.09090909,2.07954545 1.09090909,2.45454545 L1.09090909,9.54545455 C1.09090909,9.92045455 1.22443182,10.2414773 1.49147727,10.5085227 C1.75852273,10.7755682 2.07954545,10.9090909 2.45454545,10.9090909 L9.54545455,10.9090909 C9.92045455,10.9090909 10.2414773,10.7755682 10.5085227,10.5085227 C10.7755682,10.2414773 10.9090909,9.92045455 10.9090909,9.54545455 L10.9090909,7.38068182 C10.9090909,7.30681818 10.9346591,7.24431818 10.9857955,7.19318182 L11.53125,6.64772727 C11.5880682,6.59090909 11.6534091,6.5625 11.7272727,6.5625 C11.7613636,6.5625 11.7954545,6.57102273 11.8295455,6.58806818 C11.9431818,6.63352273 12,6.71590909 12,6.83522727 L12,6.83522727 Z M13.96875,2.66761364 L7.03125,9.60511364 C6.89488636,9.74147727 6.73295455,9.80965909 6.54545455,9.80965909 C6.35795455,9.80965909 6.19602273,9.74147727 6.05965909,9.60511364 L2.39488636,5.94034091 C2.25852273,5.80397727 2.19034091,5.64204545 2.19034091,5.45454545 C2.19034091,5.26704545 2.25852273,5.10511364 2.39488636,4.96875 L3.33238636,4.03125 C3.46875,3.89488636 3.63068182,3.82670455 3.81818182,3.82670455 C4.00568182,3.82670455 4.16761364,3.89488636 4.30397727,4.03125 L6.54545455,6.27272727 L12.0596591,0.758522727 C12.1960227,0.622159091 12.3579545,0.553977273 12.5454545,0.553977273 C12.7329545,0.553977273 12.8948864,0.622159091 13.03125,0.758522727 L13.96875,1.69602273 C14.1051136,1.83238636 14.1732955,1.99431818 14.1732955,2.18181818 C14.1732955,2.36931818 14.1051136,2.53125 13.96875,2.66761364 L13.96875,2.66761364 Z" id="Shape" fill="#4187C7"></path>
        </g>
    </g>
</svg>