<?xml version="1.0" encoding="utf-8"?>
<!-- Generator: Adobe Illustrator 18.1.1, SVG Export Plug-In . SVG Version: 6.00 Build 0)  -->
<svg version="1.1" id="Layer_1" xmlns="http://www.w3.org/2000/svg" xmlns:xlink="http://www.w3.org/1999/xlink" x="0px" y="0px"
	 viewBox="0 0 21.9 14" enable-background="new 0 0 21.9 14" xml:space="preserve">
<g id="XMLID_2251_">
	<path id="XMLID_2252_" fill="#4187C7" d="M21,0H0.9H0.7H0.2H0v14h21.9V0h-0.8H21z M20.1,0.9l-8.5,8.5c-0.4,0.4-1.1,0.4-1.4,0
		L1.8,0.9H20.1z M0.9,1.2l5.7,5.7l-5.7,5.7V1.2z M1.6,13.1l5.6-5.6l2.4,2.4c0.4,0.4,0.8,0.6,1.3,0.6s1-0.2,1.3-0.6l2.4-2.4l5.6,5.6
		H1.6z M21,12.6l-5.7-5.7L21,1.2V12.6z"/>
</g>
</svg>
