<?xml version="1.0" encoding="utf-8"?>
<!-- Generator: Adobe Illustrator 18.1.1, SVG Export Plug-In . SVG Version: 6.00 Build 0)  -->
<svg version="1.1" id="Layer_1" xmlns="http://www.w3.org/2000/svg" xmlns:xlink="http://www.w3.org/1999/xlink" x="0px" y="0px"
	 viewBox="0 0 36 36" enable-background="new 0 0 36 36" xml:space="preserve">
<path id="XMLID_15_" fill="#4287C7" d="M18,0C8.1,0,0,8.1,0,18c0,9.9,8.1,18,18,18c9.9,0,18-8.1,18-18C36,8.1,27.9,0,18,0z
	 M30.4,28.5c-1.1-0.6-2.4-1.1-3.8-1.5c0.8-2.5,1.2-5.2,1.3-8.1h6.3C34.1,22.5,32.7,25.9,30.4,28.5z M1.7,18.9H8
	c0.1,2.9,0.5,5.7,1.3,8.1c-1.4,0.4-2.6,0.9-3.8,1.5C3.3,25.9,1.9,22.5,1.7,18.9z M5.6,7.5C6.7,8.1,8,8.6,9.3,9
	c-0.8,2.5-1.2,5.2-1.3,8.1H1.7C1.9,13.5,3.3,10.1,5.6,7.5z M17.1,8.6c-2-0.1-3.9-0.3-5.7-0.7c0.2-0.6,0.5-1.1,0.8-1.6
	c1.4-2.6,3.1-4.1,4.9-4.5V8.6z M17.1,10.2v6.9H9.7c0.1-2.8,0.5-5.4,1.2-7.7C12.9,9.9,15,10.2,17.1,10.2z M17.1,18.9v6.9
	c-2.2,0.1-4.3,0.3-6.2,0.8c-0.7-2.3-1.2-4.9-1.2-7.7H17.1z M17.1,27.4v6.8c-1.8-0.4-3.5-1.9-4.9-4.5c-0.3-0.5-0.5-1.1-0.8-1.6
	C13.3,27.7,15.2,27.5,17.1,27.4z M18.9,27.4c2,0.1,3.9,0.3,5.7,0.7c-0.2,0.6-0.5,1.1-0.8,1.6c-1.4,2.6-3.1,4.1-4.9,4.5V27.4z
	 M18.9,25.8v-6.9h7.5c-0.1,2.8-0.5,5.4-1.2,7.7C23.1,26.1,21,25.8,18.9,25.8z M18.9,17.1v-6.9c2.2-0.1,4.3-0.3,6.2-0.8
	c0.7,2.3,1.2,4.9,1.2,7.7H18.9z M18.9,8.6V1.8c1.8,0.4,3.5,1.9,4.9,4.5c0.3,0.5,0.5,1.1,0.8,1.6C22.7,8.3,20.8,8.5,18.9,8.6z
	 M25.2,5.5c-0.6-1.2-1.3-2.1-2.1-2.9c2.3,0.8,4.4,2.1,6.1,3.7c-1,0.5-2,0.9-3.2,1.2C25.8,6.8,25.5,6.1,25.2,5.5z M10.8,5.5
	c-0.3,0.6-0.6,1.3-0.9,2C8.8,7.2,7.7,6.7,6.7,6.3c1.7-1.7,3.8-2.9,6.1-3.7C12.1,3.4,11.4,4.3,10.8,5.5z M9.9,28.5
	c0.3,0.7,0.6,1.4,0.9,2c0.6,1.2,1.3,2.1,2.1,2.9c-2.3-0.8-4.4-2.1-6.1-3.7C7.7,29.3,8.8,28.8,9.9,28.5z M25.2,30.5
	c0.3-0.6,0.6-1.3,0.9-2c1.1,0.3,2.2,0.7,3.2,1.2c-1.7,1.7-3.8,2.9-6.1,3.7C23.9,32.7,24.6,31.7,25.2,30.5z M28,17.1
	c-0.1-2.9-0.5-5.7-1.3-8.1c1.4-0.4,2.6-0.9,3.8-1.5c2.2,2.6,3.6,6,3.8,9.6H28z"/>
</svg>
