<?xml version="1.0" encoding="utf-8"?>
<!-- Generator: Adobe Illustrator 18.1.1, SVG Export Plug-In . SVG Version: 6.00 Build 0)  -->
<svg version="1.1" id="Layer_1" xmlns="http://www.w3.org/2000/svg" xmlns:xlink="http://www.w3.org/1999/xlink" x="0px" y="0px"
	 viewBox="0 0 20.9 16" enable-background="new 0 0 20.9 16" xml:space="preserve">
<g id="XMLID_214_">
	<path id="XMLID_273_" fill="#4187C7" d="M17,1v10.6c-1.7,0-3.6,0.4-6,3V4C13.4,1.4,15.3,1,17,1 M18,0h-1c-1.9,0-4.1,0.4-6.7,3.3
		L10,3.6V4v9.5v2.6h1l0.7-0.8c2.2-2.5,3.9-2.7,5.3-2.7h1v-1V1V0L18,0z"/>
	<g id="XMLID_271_">
		<polygon id="XMLID_272_" fill="#4187C7" points="20.9,16 13.5,16 13.5,15 19.9,15 19.9,4 17,4 17,3 20.9,3 		"/>
	</g>
	<g id="XMLID_267_">
		<path id="XMLID_270_" fill="#4187C7" d="M16,8.4c-1.2,0.1-2.5,0.6-4,1.9v1.2c1.6-1.7,2.9-2,4-2.2V8.4z"/>
		<path id="XMLID_269_" fill="#4187C7" d="M16,5.3c-1.2,0.1-2.5,0.6-4,1.9v1.2c1.6-1.7,2.9-2,4-2.2V5.3z"/>
		<path id="XMLID_268_" fill="#4187C7" d="M16,2.7c-1.2,0.1-2.5,0.6-4,1.9v1.2c1.6-1.7,2.9-2,4-2.2V2.7z"/>
	</g>
	<path id="XMLID_264_" fill="#4187C7" d="M4,1c1.7,0,3.6,0.4,6,3v10.6c-2.4-2.6-4.3-3-6-3V1 M3,0v1v10.6v1h1c1.4,0,3,0.2,5.3,2.7
		l0.7,0.8h1v-2.6V4V3.6l-0.3-0.3C8.1,0.4,5.9,0,4,0L3,0L3,0z"/>
	<g id="XMLID_262_">
		<polygon id="XMLID_263_" fill="#4187C7" points="7.5,16 0,16 0,3 4,3 4,4 1,4 1,15 7.5,15 		"/>
	</g>
	<g id="XMLID_256_">
		<path id="XMLID_261_" fill="#4187C7" d="M5,8.4C6.2,8.5,7.5,9,9,10.3v1.2c-1.6-1.7-2.9-2-4-2.2V8.4z"/>
		<path id="XMLID_258_" fill="#4187C7" d="M5,5.3c1.2,0.1,2.5,0.6,4,1.9v1.2c-1.6-1.7-2.9-2-4-2.2V5.3z"/>
		<path id="XMLID_257_" fill="#4187C7" d="M5,2.7c1.2,0.1,2.5,0.6,4,1.9v1.2c-1.6-1.7-2.9-2-4-2.2V2.7z"/>
	</g>
</g>
</svg>
