<?xml version="1.0" encoding="utf-8"?>
<!-- Generator: Adobe Illustrator 18.1.1, SVG Export Plug-In . SVG Version: 6.00 Build 0)  -->
<svg version="1.1" id="Layer_1" xmlns="http://www.w3.org/2000/svg" xmlns:xlink="http://www.w3.org/1999/xlink" x="0px" y="0px"
	 viewBox="0 0 17.4 17.4" enable-background="new 0 0 17.4 17.4" xml:space="preserve">
<g id="XMLID_523_">
	<path id="XMLID_545_" fill="#4187C7" d="M9.4,0c-4.4,0-8,3.6-8,8c0,2,0.8,3.9,2,5.3L0,16.6l0.7,0.7L4.1,14c1.4,1.2,3.2,2,5.3,2
		c5.2,0,8-4.6,8-8C17.4,3.6,13.8,0,9.4,0z M9.4,14.9c-3.8,0-6.9-3.1-6.9-6.9c0-3.8,3.1-6.9,6.9-6.9c3.8,0,6.9,3.1,6.9,6.9
		C16.3,10.9,13.9,14.9,9.4,14.9z"/>
	<circle id="XMLID_600_" fill="#4187C7" cx="9.4" cy="8" r="0.8"/>
	<path id="XMLID_574_" fill="#4187C7" d="M7.8,5.7L7.4,5.9L7.3,6.4l-1.3,4.2l-0.7,2.1l2-0.9l3.7-1.6l0.4-0.2l0.1-0.4l1.3-4.2
		l0.7-2.1l-2,0.9L7.8,5.7z M10.5,9.3l-3.7,1.6l1.3-4.2l3.7-1.6L10.5,9.3z"/>
</g>
</svg>
