<?xml version="1.0" encoding="utf-8"?>
<!-- Generator: Adobe Illustrator 18.1.1, SVG Export Plug-In . SVG Version: 6.00 Build 0)  -->
<svg version="1.1" id="Layer_1" xmlns="http://www.w3.org/2000/svg" xmlns:xlink="http://www.w3.org/1999/xlink" x="0px" y="0px"
	 viewBox="0 0 19 17.4" enable-background="new 0 0 19 17.4" xml:space="preserve">
<g id="XMLID_260_">
	<circle id="XMLID_610_" fill="#4187C7" cx="9.9" cy="5.3" r="0.6"/>
	<circle id="XMLID_609_" fill="#4187C7" cx="12.4" cy="5.3" r="0.6"/>
	<circle id="XMLID_607_" fill="#4187C7" cx="15" cy="5.3" r="0.6"/>
	<path id="XMLID_547_" fill="#4187C7" d="M18,1v7.6h-0.9h-1v1v0.6l-1.3-1.3l-0.3-0.3h-0.4H6.8V1H18 M19,0H5.8v9.6h8.2l3,3v-3H19V0
		L19,0z"/>
	<path id="XMLID_292_" fill="#4187C7" d="M1.9,17.4v-3.7H0V3.1h6.8v5.5h6.3v5.1H5.6L1.9,17.4z M1,12.7h1.9V15l2.3-2.3h6.9V9.6H5.8
		V4.1H1V12.7z"/>
</g>
</svg>
