<?xml version="1.0" encoding="utf-8"?>
<!-- Generator: Adobe Illustrator 18.1.1, SVG Export Plug-In . SVG Version: 6.00 Build 0)  -->
<svg version="1.1" id="Layer_1" xmlns="http://www.w3.org/2000/svg" xmlns:xlink="http://www.w3.org/1999/xlink" x="0px" y="0px"
	 viewBox="0 0 17 17.5" enable-background="new 0 0 17 17.5" xml:space="preserve">
<g id="XMLID_315_">
	<g id="XMLID_1744_">
		<path id="XMLID_1746_" fill="#4187C7" d="M17,17.5H0v-2.9c0-1,0.6-1.3,0.9-1.4c1.6-0.6,3.1-1.5,4.6-2.5c0.3-0.3,0.6-0.5,0.9-0.7
			c0,0,0,0-0.1-0.1C5.7,9.3,5.2,8.6,5,7.7C4.8,7.7,4.7,7.6,4.7,7.5C4.4,7.3,4.3,6.9,4.3,6.5c0-0.3,0.1-0.7,0.4-0.9
			C4.6,5.1,4.6,4.5,4.6,3.9c0-1.1,0.4-2,1.1-2.8C6.4,0.5,7.2,0.1,8.2,0c0.1,0,0.2,0,0.3,0h0.1c0.1,0,0.2,0,0.4,0
			c0.9,0.1,1.7,0.5,2.4,1.1c0.8,0.7,1.1,1.7,1.1,2.8c0,0.6,0,1.1-0.1,1.7c0.3,0.3,0.4,0.6,0.4,0.9c0,0.4-0.1,0.7-0.4,0.9
			c-0.1,0.1-0.2,0.2-0.3,0.2c-0.2,0.9-0.7,1.6-1.4,2.2c0,0,0,0,0,0.1l0.6,0.5c0.4,0.3,0.9,0.6,1.4,0.9c0.8,0.5,1.4,0.8,2,1.1
			c0.5,0.2,0.9,0.4,1.4,0.6c0.3,0.1,0.9,0.4,0.9,1.4V17.5z M1,16.5h15v-1.9c0-0.4-0.1-0.4-0.2-0.5c-0.5-0.2-1-0.4-1.5-0.6
			c-0.6-0.3-1.3-0.7-2.1-1.2c-0.5-0.3-1-0.6-1.5-1L10,10.7c-0.4-0.5-0.4-1,0-1.5c0.6-0.6,1-1.2,1.2-2L11.2,7l0.3-0.1
			c0,0,0.1,0,0.2-0.1c0.1-0.1,0.1-0.1,0.1-0.2c0-0.1,0-0.2-0.1-0.3c-0.1-0.1-0.2-0.3-0.3-0.5l0-0.1l0-0.1c0.1-0.6,0.1-1.1,0.1-1.7
			c0-0.8-0.3-1.5-0.9-2.1C10.1,1.3,9.5,1.1,8.8,1C8.7,1,8.6,1,8.5,1H8.5C8.4,1,8.3,1,8.3,1C7.5,1.1,6.9,1.3,6.4,1.9
			C5.8,2.4,5.5,3.1,5.6,3.9c0,0.6,0,1.1,0.1,1.7l0,0.1l0,0.1c0,0.2-0.1,0.4-0.3,0.6C5.3,6.4,5.3,6.4,5.3,6.5c0,0.1,0,0.2,0.1,0.2
			c0.1,0.1,0.1,0.1,0.2,0.1L5.8,7l0.1,0.3C6,8,6.4,8.7,7,9.2c0.3,0.3,0.4,0.6,0.4,0.9c0,0.2-0.1,0.5-0.4,0.7
			c-0.3,0.2-0.6,0.4-0.9,0.6c-1.6,1.1-3.2,2-4.9,2.7c-0.1,0-0.2,0.1-0.2,0.5V16.5z"/>
		<path id="XMLID_1745_" fill="#4187C7" d="M8.5,14.7l-0.2-0.1c-1.4-0.7-2.4-1.7-3-3.1l0.9-0.4c0.5,1.1,1.2,1.9,2.3,2.5
			c0.6-0.3,1-0.7,1.4-1.1c0.4-0.4,0.6-0.9,0.9-1.4l0.9,0.4c-0.3,0.6-0.6,1.2-1,1.7c-0.5,0.6-1.2,1.1-2,1.5L8.5,14.7z"/>
	</g>
</g>
</svg>
