<?xml version="1.0" encoding="utf-8"?>
<!-- Generator: Adobe Illustrator 18.1.1, SVG Export Plug-In . SVG Version: 6.00 Build 0)  -->
<svg version="1.1" id="Layer_1" xmlns="http://www.w3.org/2000/svg" xmlns:xlink="http://www.w3.org/1999/xlink" x="0px" y="0px"
	 viewBox="0 0 16 16" enable-background="new 0 0 16 16" xml:space="preserve">
<g id="XMLID_208_">
	<circle id="XMLID_221_" fill="#4187C7" cx="1" cy="15" r="1"/>
	<path id="XMLID_220_" fill="#4187C7" d="M0,4.5L0,4.5v1l0,0c5.8,0,10.5,4.7,10.5,10.5h1C11.5,9.6,6.4,4.5,0,4.5z"/>
	<path id="XMLID_218_" fill="#4187C7" d="M0,1L0,1c8.3,0,15,6.7,15,15h1C16,7.2,8.8,0,0,0l0,0V1z"/>
	<path id="XMLID_217_" fill="#4187C7" d="M0,9.5L0,9.5v1l0,0c3,0,5.5,2.5,5.5,5.5h1C6.5,12.4,3.6,9.5,0,9.5z"/>
</g>
</svg>
