<?xml version="1.0" encoding="utf-8"?>
<!-- Generator: Adobe Illustrator 18.1.1, SVG Export Plug-In . SVG Version: 6.00 Build 0)  -->
<svg version="1.1" id="Layer_1" xmlns="http://www.w3.org/2000/svg" xmlns:xlink="http://www.w3.org/1999/xlink" x="0px" y="0px"
	 viewBox="0 0 23.7 24.4" enable-background="new 0 0 23.7 24.4" xml:space="preserve">
<g id="XMLID_40_">
	<path id="XMLID_774_" fill="#FFFFFF" d="M12.8,15.8c-0.1,0.1-0.2,0.3-0.2,0.4c0,0.2,0.1,0.3,0.2,0.4c0.1,0.1,0.3,0.2,0.4,0.2
		s0.3-0.1,0.4-0.2l3.8-3.8c0.2-0.2,0.2-0.6,0-0.9l-3.8-3.8C13.6,8,13.4,8,13.2,8c0,0,0,0,0,0c-0.2,0-0.3,0.1-0.4,0.2
		c-0.1,0.1-0.2,0.3-0.2,0.4s0.1,0.3,0.2,0.4l2.8,2.8h-15c-0.3,0-0.6,0.3-0.6,0.6C0,12.7,0.3,13,0.6,13h15L12.8,15.8z"/>
	<path id="XMLID_775_" fill="#FFFFFF" d="M7.6,0v6.9c0,0.3,0.3,0.6,0.6,0.6s0.6-0.3,0.6-0.6V1.2h13.6v21.9H8.8v-5.3
		c0-0.3-0.3-0.6-0.6-0.6s-0.6,0.3-0.6,0.6v6.5h16V0H7.6z"/>
</g>
</svg>
