<?xml version="1.0" encoding="utf-8"?>
<!-- Generator: Adobe Illustrator 18.1.1, SVG Export Plug-In . SVG Version: 6.00 Build 0)  -->
<svg version="1.1" id="Layer_1" xmlns="http://www.w3.org/2000/svg" xmlns:xlink="http://www.w3.org/1999/xlink" x="0px" y="0px"
	 viewBox="0 0 23 24" enable-background="new 0 0 23 24" xml:space="preserve">
<g id="XMLID_721_">
	<g id="XMLID_49_">
		<path id="XMLID_50_" fill="#FFFFFF" d="M21.1,24H1.9C0.7,24,0,23.3,0,22.1v-2c0-1.2,0.7-1.6,1.1-1.8c2.2-0.9,4.3-2,6.3-3.5
			l0.1-0.1c0.4-0.3,0.7-0.5,1.1-0.8c0.1-0.1,0.1-0.1,0.1-0.1c0,0,0-0.1-0.2-0.3c-0.9-0.8-1.5-1.8-1.8-3c-0.2-0.1-0.3-0.2-0.4-0.3
			C6,9.9,5.9,9.4,5.9,9c0-0.4,0.1-0.9,0.5-1.2C6.3,7,6.3,6.2,6.3,5.3c0-1.5,0.5-2.7,1.5-3.7C8.7,0.6,9.8,0.1,11,0c0.1,0,0.3,0,0.4,0
			c0.3,0,0.4,0,0.6,0c1.2,0.1,2.3,0.6,3.2,1.5c1,1,1.5,2.3,1.5,3.7c0,0.8-0.1,1.6-0.2,2.4C17,8.1,17.1,8.5,17.1,9
			c0,0.5-0.2,0.9-0.5,1.2c-0.1,0.1-0.3,0.2-0.4,0.3c-0.3,1.2-0.9,2.2-1.8,3c-0.1,0.1-0.1,0.3,0.1,0.5l0.9,0.6
			c0.6,0.5,1.3,0.9,1.9,1.3c1.1,0.7,2,1.2,2.8,1.6c0.6,0.3,1.3,0.6,1.9,0.8c0.5,0.2,1.1,0.6,1.1,1.8v2C23,23.3,22.3,24,21.1,24
			L21.1,24z M11.5,1c-0.1,0-0.2,0-0.3,0c-1.1,0.1-1.9,0.5-2.6,1.2c-0.8,0.8-1.2,1.8-1.2,3c0,0.8,0.1,1.6,0.2,2.4l0,0.1l0,0.1
			c0,0.3-0.2,0.5-0.4,0.7C7,8.6,6.9,8.8,6.9,9c0,0.2,0,0.3,0.2,0.5c0.1,0.1,0.2,0.2,0.3,0.2l0.3,0.1L7.7,10c0.3,1.1,0.8,2,1.6,2.8
			c0.3,0.4,0.5,0.8,0.5,1.1c0,0.3-0.2,0.6-0.5,0.9c-0.4,0.3-0.7,0.6-1.1,0.8L8,15.7c-2.1,1.5-4.3,2.7-6.6,3.6
			c-0.1,0-0.4,0.1-0.4,0.8v2c0,0.6,0.2,0.8,0.9,0.9h19.2c0.6,0,0.8-0.2,0.8-0.8v-2c0-0.7-0.3-0.8-0.4-0.8c-0.7-0.3-1.3-0.6-2-0.9
			c-0.9-0.4-1.8-0.9-2.9-1.6c-0.6-0.4-1.2-0.8-2-1.3l-1-0.7c-0.6-0.7-0.6-1.3-0.1-1.9c0.9-0.8,1.4-1.7,1.6-2.8l0.1-0.3l0.3-0.1
			c0.1,0,0.2-0.1,0.3-0.2C16,9.3,16.1,9.2,16.1,9c0-0.2-0.1-0.4-0.2-0.5c-0.2-0.1-0.3-0.4-0.3-0.6l0-0.1l0-0.1
			c0.1-0.8,0.2-1.6,0.2-2.4c0-1.2-0.4-2.2-1.2-3c-0.7-0.7-1.6-1.2-2.6-1.2c-0.1,0-0.2,0-0.3,0C11.5,1,11.5,1,11.5,1z"/>
	</g>
	<g id="XMLID_44_">
		<path id="XMLID_45_" fill="#FFFFFF" d="M11.5,19.1L11.3,19c-1.9-0.9-3.2-2.3-4-4.3l0.9-0.4C8.9,16,10,17.2,11.5,18
			c0.8-0.4,1.5-1,2.1-1.7c0.5-0.6,0.9-1.2,1.2-2l1,0.4c-0.4,0.9-0.8,1.6-1.4,2.3c-0.7,0.8-1.6,1.5-2.6,2L11.5,19.1z"/>
	</g>
</g>
</svg>
