<?xml version="1.0" encoding="utf-8"?>
<!-- Generator: Adobe Illustrator 18.1.1, SVG Export Plug-In . SVG Version: 6.00 Build 0)  -->
<svg version="1.1" id="Layer_1" xmlns="http://www.w3.org/2000/svg" xmlns:xlink="http://www.w3.org/1999/xlink" x="0px" y="0px"
	 viewBox="0 0 21 17" enable-background="new 0 0 21 17" xml:space="preserve">
<g>
	<polygon fill="#FFFFFF" points="6.9,0 9.1,2 9,3 6.6,1 	"/>
	<polygon fill="#FFFFFF" points="20,5.5 3,5.5 4,4.5 21,4.5 	"/>
	<g>
		<polygon fill="#FFFFFF" points="1,13.5 1,1 6.6,1 6.9,0 0,0 0,14.5 11,14.5 11,13.5 		"/>
		<polygon fill="#FFFFFF" points="17,5 18,5 18,2 9.1,2 9,3 17,3 		"/>
	</g>
	<polygon fill="#FFFFFF" points="1,14.5 4,4.5 3,4.5 0,14.5 	"/>
	<polygon fill="#FFFFFF" points="19.3,9.5 21,4.5 20,4.5 18.3,9.5 	"/>
	<g>
		<path fill="#FFFFFF" d="M15,8c2.2,0,4,1.8,4,4s-1.8,4-4,4s-4-1.8-4-4S12.8,8,15,8 M15,7c-2.8,0-5,2.2-5,5s2.2,5,5,5s5-2.2,5-5
			S17.8,7,15,7L15,7z"/>
		<rect x="13" y="11.5" fill="#FFFFFF" width="4" height="1"/>
		<rect x="12.5" y="11.5" fill="#FFFFFF" width="5" height="1"/>
		<rect x="14.5" y="9.5" fill="#FFFFFF" width="1" height="5"/>
	</g>
</g>
</svg>
