<?xml version="1.0" encoding="utf-8"?>
<!-- Generator: Adobe Illustrator 18.1.1, SVG Export Plug-In . SVG Version: 6.00 Build 0)  -->
<svg version="1.1" id="Layer_1" xmlns="http://www.w3.org/2000/svg" xmlns:xlink="http://www.w3.org/1999/xlink" x="0px" y="0px"
	 viewBox="0 0 115.4 63.3" enable-background="new 0 0 115.4 63.3" xml:space="preserve">
<g id="XMLID_577_">
	<path id="XMLID_2920_" fill="#B4B4B4" d="M22.9,20.2C22.7,20,22.3,20,22,20c0,0-0.1,0-0.1,0c-0.4,0-0.7,0-1-0.4
		c-0.3-0.4-0.3-1.6-0.3-2.1v-0.1V3.8c0-0.1,0-0.3,0-0.4c0-0.6,0-1.6,0.2-1.9c0.2-0.2,0.6-0.2,0.9-0.2c0.1,0,0.2,0,0.2,0
		c0.8,0,0.9-0.5,0.9-0.8c0-0.2-0.1-0.4-0.2-0.5C22.5,0,22.3,0,22,0c-0.1,0-0.1,0-0.2,0h-3.3c-0.3,0-0.8,0-1,0.6l-5.8,15.1
		C10.8,13,6.6,1.2,6.6,1.2c0-0.1,0-0.2-0.1-0.2C6.4,0.5,6.3,0,5.7,0H2.3C2.2,0,2.1,0,2.1,0C1.9,0,1.6,0,1.4,0.1
		C1.3,0.3,1.2,0.4,1.2,0.6c0,0.2,0.1,0.8,0.9,0.8c0.7,0,1.1,0,1.3,0.2c0.2,0.2,0.2,0.6,0.1,1.5L2.6,17.7C2.5,19.4,2.4,20,1,20
		c-0.8,0-1,0.4-1,0.6c0,0.3,0.1,0.6,0.7,0.6c0.4,0,0.9,0,1.3-0.1c0.4,0,0.9-0.1,1.3-0.1c0.4,0,0.9,0,1.3,0.1c0.4,0,0.9,0.1,1.3,0.1
		c0.3,0,0.9,0,0.9-0.6c0-0.2-0.1-0.3-0.2-0.4C6.4,20,6,20,5.7,20H5.7c-0.6,0-1-0.1-1.3-0.4c-0.5-0.6-0.5-1.7-0.5-3.1l0.8-13
		c0.9,2.7,5.6,16.3,5.6,16.3l0,0c0.1,0.3,0.2,0.8,0.6,0.8c0.4,0,0.5-0.4,0.6-0.6c0,0,0-0.1,0-0.1l6.3-16.7v14.3v0.2
		c0,0.6,0,1.6-0.4,2c-0.3,0.3-0.8,0.4-1.2,0.4c0,0-0.1,0-0.1,0c-0.2,0-0.6,0-0.9,0.2c-0.1,0.1-0.2,0.3-0.2,0.4
		c0,0.3,0.1,0.6,0.8,0.6c0.6,0,1.2,0,1.7-0.1c0.6,0,1.2-0.1,1.8-0.1c0.5,0,0.9,0,1.4,0.1c0.5,0,0.9,0.1,1.4,0.1
		c0.6,0,0.8-0.3,0.8-0.6C23.1,20.5,23,20.3,22.9,20.2"/>
	<path id="XMLID_2919_" fill="#B4B4B4" d="M34.2,10.1c-0.5,0-0.8-0.6-1.3-1.4c-0.6-1.1-1.4-2.4-2.8-2.4c-1.1,0-2.3,0.7-3,1.3
		C25.8,9,25,11,25,13.1c0,3.3,2.1,6.8,5.6,6.8c1.3,0,2.5-0.5,3.4-1.4c0,0,0,0,0.1-0.1c0.2-0.2,0.4-0.4,0.6-0.4
		c0.2,0,0.4,0.2,0.4,0.5c0,0.2-0.1,0.5-1,1.4c-1.3,1.1-2.9,1.7-4.6,1.7c-3.9,0-7.1-3.6-7.1-7.9c0-4.6,3.8-8.5,8.2-8.5
		c1.2,0,2.9,0.4,3.9,1.2c0.4,0.3,0.4,0.9,0.3,1.4c0,0.1,0,0.2,0,0.3c0,0,0,0.1,0,0.2c0,0.6,0.1,1.3-0.2,1.6
		C34.4,10.1,34.3,10.1,34.2,10.1"/>
	<path id="XMLID_2918_" fill="#B4B4B4" d="M57.9,20.2C57.6,20,57.3,20,57,20c0,0-0.1,0-0.1,0c-0.4,0-0.7,0-1-0.4
		c-0.3-0.4-0.3-1.6-0.3-2.1v-0.1V3.8c0-0.1,0-0.3,0-0.4c0-0.6,0-1.6,0.2-1.9c0.2-0.2,0.6-0.2,0.9-0.2c0.1,0,0.1,0,0.2,0
		c0.8,0,0.9-0.5,0.9-0.8c0-0.2-0.1-0.4-0.2-0.5C57.5,0,57.2,0,57,0c-0.1,0-0.1,0-0.2,0h-3.3c-0.3,0-0.8,0-1,0.6l-5.8,15.1
		C45.8,13,41.6,1.2,41.6,1.2c0-0.1,0-0.2-0.1-0.2C41.4,0.5,41.3,0,40.6,0h-3.4c0,0-0.1,0-0.2,0c-0.2,0-0.5,0-0.7,0.1
		c-0.1,0.1-0.2,0.3-0.2,0.5c0,0.2,0.1,0.8,0.9,0.8c0.7,0,1.1,0,1.2,0.2c0.2,0.2,0.2,0.6,0.1,1.5l-0.9,14.6c-0.1,1.7-0.2,2.3-1.6,2.3
		c-0.8,0-1,0.4-1,0.6c0,0.3,0.1,0.6,0.7,0.6c0.4,0,0.9,0,1.3-0.1c0.4,0,0.9-0.1,1.3-0.1c0.4,0,0.9,0,1.3,0.1c0.4,0,0.9,0.1,1.3,0.1
		c0.3,0,0.9,0,0.9-0.6c0-0.2-0.1-0.3-0.2-0.4C41.4,20,41,20,40.7,20h-0.1c-0.6,0-1-0.1-1.3-0.4c-0.5-0.6-0.5-1.7-0.4-3.1l0.8-13
		c0.9,2.7,5.6,16.3,5.6,16.3l0,0c0.1,0.3,0.2,0.8,0.6,0.8c0.4,0,0.5-0.4,0.6-0.6c0,0,0-0.1,0-0.1l6.3-16.7v14.3v0.2
		c0,0.6,0,1.6-0.4,2c-0.3,0.3-0.8,0.4-1.2,0.4c0,0-0.1,0-0.1,0c-0.3,0-0.6,0-0.9,0.2c-0.1,0.1-0.2,0.3-0.2,0.4
		c0,0.3,0.1,0.6,0.8,0.6c0.6,0,1.2,0,1.7-0.1c0.6,0,1.2-0.1,1.8-0.1c0.5,0,0.9,0,1.4,0.1c0.5,0,0.9,0.1,1.4,0.1
		c0.6,0,0.8-0.3,0.8-0.6C58,20.5,58,20.3,57.9,20.2"/>
	<path id="XMLID_2915_" fill="#B4B4B4" d="M62.9,14.8c-1.2,0.7-2.3,1.5-2.3,3c0,1.3,1,1.8,1.9,1.8c1,0,2-0.5,2.7-1.3
		c0.7-0.8,0.7-1.3,0.7-2.4v-2.1c0,0,0-0.1,0-0.1c0-0.5,0-0.6-0.1-0.7c0,0,0,0,0,0c0,0,0,0,0,0c0,0-0.1,0-0.1,0.1c0,0-0.1,0-0.1,0.1
		l0,0L62.9,14.8 M64.9,12.5c1-0.5,1-0.5,1-1.7V9.3c0-1.8-0.1-2.9-1.8-2.9c-1.6,0-2.6,0.8-3.4,2.8c0,0-0.1,0.2-0.1,0.2
		c-0.2,0.5-0.4,0.9-0.9,1.2c-0.3,0.2-1,0.5-1.4,0.5c-0.4,0-0.6-0.2-0.6-0.6c0-1,0.7-2,1.4-2.6c1.5-1.5,3.7-2.4,5.7-2.4
		c1.3,0,2.3,0.3,3,1c0.7,0.7,0.7,1.5,0.7,2.3l0,0.3V17v0.1c0,0.6,0,1.8,0.5,2.3c0.1,0.1,0.3,0.2,0.4,0.2c0.4,0,0.7-0.3,0.9-0.5
		c0.2-0.2,0.3-0.3,0.5-0.3c0.2,0,0.4,0.2,0.4,0.5c0,0.5-0.5,0.9-0.8,1.2l0,0c-0.6,0.5-1.5,1-2.3,1c-1.1,0-1.6-1.1-1.9-1.8
		c-0.1-0.2-0.2-0.5-0.3-0.6c0,0,0,0,0,0c0,0,0,0,0,0c-0.1,0-0.2,0.2-0.4,0.3c-0.8,0.7-2.5,2.3-4.7,2.3c-1.5,0-3.1-1-3.1-2.9
		c0-2.5,2.7-3.9,4.5-4.9l0.2-0.1C62.5,13.8,64.9,12.5,64.9,12.5"/>
	<path id="XMLID_2914_" fill="#B4B4B4" d="M71.8,16.9L71.8,16.9c0-0.3,0.1-0.9,0.6-0.9c0.6,0,0.7,0.7,0.8,1.4
		c0.3,1.4,0.6,3.3,3.2,3.3c1.7,0,3.6-1.1,3.6-3.2c0-1.9-1.5-2.6-2.8-3.1c0,0-0.3-0.1-0.3-0.1c-1.9-0.7-4.6-1.6-4.6-4.4
		c0-1.3,0.6-2.5,1.7-3.4c1-0.8,2.2-1.2,3.8-1.2c0.8,0,2.5,0.2,3.3,0.6c0.5,0.3,0.5,0.9,0.5,1.4c0,0.1,0,0.2,0,0.3c0,0,0,0.1,0,0.2
		c0.1,0.6,0.1,1.3-0.2,1.6c-0.1,0.1-0.2,0.1-0.3,0.1c-0.4,0-0.5-0.4-0.8-0.9c-0.4-1-0.9-2.3-3-2.3c-1.1,0-2.7,0.8-2.7,2.3
		c0,1.7,1.5,2.3,3.3,2.9c2.1,0.8,4.5,1.7,4.5,4.9c0,3.6-3.6,5.2-6.1,5.2c-1.1,0-2.9-0.4-4-1.1c-0.5-0.3-0.5-0.8-0.5-1.3l0-0.2
		C71.7,19.2,71.8,16.9,71.8,16.9"/>
	<path id="XMLID_2913_" fill="#B4B4B4" d="M91,19.2c0-0.2-0.2-0.4-0.4-0.4c-0.2,0-0.3,0.1-0.5,0.3c-0.4,0.3-1,0.9-1.7,0.9
		c-0.4,0-0.7-0.1-0.9-0.4c-0.7-0.7-0.7-2.3-0.7-3.4v-0.1V7.4c0-0.3,0.1-0.5,0.1-0.5c0.1-0.1,0.3-0.1,0.5-0.1c0.1,0,0.2,0,0.3,0h1.7
		c0.1,0,0.2,0,0.3,0c0.3,0,0.5,0,0.7-0.1c0.2-0.1,0.2-0.4,0.2-0.6c0-0.3,0-0.7-0.5-0.7c0,0-3.1,0-3,0c-0.2,0-0.3,0-0.3-0.5V2.5
		c0-0.5-0.2-0.6-0.5-0.6c-0.3,0-0.4,0.3-0.5,0.4c-0.7,1.6-1.5,2.4-2.9,3.4c0,0,0,0-0.1,0.1c-0.2,0.1-0.4,0.3-0.4,0.6
		c0,0.1,0,0.2,0.1,0.3c0.2,0.2,0.6,0.2,0.9,0.2c0,0,0.1,0,0.1,0c0.1,0,0.1,0,0.2,0c0.1,0,0.3,0,0.3,0c0,0,0.1,0.1,0.1,0.4v8.9l0,0.5
		c0,1.3,0,2.8,0.7,3.9c0.5,0.7,1.4,1.1,2.4,1.1c1.1,0,2.1-0.5,3-1.3C90.5,20.2,91,19.7,91,19.2"/>
	<path id="XMLID_2910_" fill="#B4B4B4" d="M94.6,8.6c0.9-1.4,2.3-2.2,3.8-2.2c0.8,0,1.8,0.2,2.5,1c0.5,0.5,0.8,1.3,0.8,1.9
		c0,0.6-0.3,1-1,1.2c-0.9,0.2-2.6,0.3-3.5,0.3h-2.5c0,0-0.1,0-0.1,0c-0.2,0-0.5,0-0.6-0.1c0,0,0-0.1,0-0.1
		C93.8,9.9,94.3,8.9,94.6,8.6 M103.9,17.5c-0.2,0-0.4,0.2-0.6,0.5c-0.6,0.6-1.8,1.8-3.9,1.8c-3.8,0-5.8-3.5-5.8-7
		c0-0.4,0-0.7,0.1-0.8c0.1-0.1,0.4-0.1,0.8-0.1h0.2h9.4c0.2,0,0.6-0.1,0.6-0.8c0-1.2-0.5-2.7-1.1-3.6c-1-1.4-2.7-2.2-4.6-2.2
		c-2.2,0-4.1,0.8-5.7,2.3c-1.6,1.5-2.3,3.3-2.3,5.9c0,4.5,3.2,8.1,7.2,8.1c2,0,3.6-0.6,5-2l0,0c0.9-0.8,1.2-1.3,1.2-1.7
		C104.4,17.7,104.2,17.5,103.9,17.5"/>
	<path id="XMLID_2909_" fill="#B4B4B4" d="M113.4,5.5c-1.6,0-2.8,1.5-3.4,2.3c-0.1,0.1-0.2,0.2-0.2,0.3c0-0.1,0-0.2,0-0.3
		c0,0,0-0.1,0-0.1V6l0,0c0-0.2,0-0.4-0.1-0.5c-0.1-0.1-0.2-0.1-0.3-0.1c-0.3,0-0.5,0.2-0.6,0.4c0,0-0.1,0.1-0.1,0.1
		c-0.5,0.6-1.8,1.5-2.5,1.7c0,0-0.1,0-0.1,0c-0.3,0.1-0.7,0.2-0.7,0.7c0,0.3,0.2,0.5,0.6,0.5h0.4c0.4,0,0.6,0.1,0.7,0.2
		c0.3,0.3,0.3,1.5,0.3,1.9v0.1v6.4c0,0.2,0,0.4,0,0.6c0,1.3,0,1.9-1.2,2c0,0-0.1,0-0.2,0c-0.3,0-0.9,0-0.9,0.7
		c0,0.3,0.2,0.5,0.6,0.5c0.5,0,1,0,1.5-0.1c0.5,0,1-0.1,1.5-0.1c0.4,0,0.9,0,1.4,0.1c0.5,0,1,0.1,1.5,0.1c0.4,0,0.6-0.2,0.6-0.6
		c0-0.6-0.6-0.6-0.9-0.6c0,0-0.1,0-0.1,0c-1.2-0.1-1.2-0.8-1.2-2c0-0.2,0-0.4,0-0.6v-5.4V12c0-1.3,0-2.1,0.7-3.2
		c0.3-0.5,0.8-1.2,1.4-1.2c0.3,0,0.5,0.2,0.7,0.5c0.3,0.3,0.6,0.8,1.3,0.8c0.9,0,1.5-0.7,1.5-1.6C115.4,6.3,114.5,5.5,113.4,5.5"/>
	<path id="XMLID_2908_" fill="#B4B4B4" d="M10.1,28.1V28c0-0.4,0-1.5-0.2-1.8c-0.2-0.3-0.5-0.4-0.9-0.4h0c-0.1,0-0.4,0-0.5-0.2
		c-0.1-0.1-0.1-0.2-0.1-0.3c0-0.1,0-0.2,0.1-0.3C8.6,25,8.7,25,8.9,25c0.3,0,0.6,0,0.8,0c0.3,0,0.5,0,0.8,0c0.2,0,0.4,0,0.7,0
		c0.2,0,0.5,0,0.7,0c0.5,0,0.6,0.3,0.6,0.5c0,0.3-0.3,0.5-0.8,0.5c-0.7,0-0.7,0.3-0.7,1.2c0,0.1,0,0.2,0,0.3v6.2
		c0,1.2,0,2.3-1.1,3.3c-0.8,0.8-1.9,1.1-3.5,1.1c-0.9,0-2.4-0.1-3.5-1c-1.1-0.9-1.1-2.1-1.1-3.4v-0.1v-6.3v-0.2c0-0.5,0-0.9-0.1-1
		c-0.1-0.1-0.4-0.2-0.8-0.2c-0.4,0-0.7-0.2-0.7-0.5c0-0.2,0-0.3,0.1-0.3C0.5,25,0.6,25,0.7,25c0.3,0,0.7,0,1,0c0.3,0,0.7,0,1,0
		c0.3,0,0.7,0,1,0c0.3,0,0.7,0,1,0c0.3,0,0.5,0.2,0.5,0.5c0,0.3-0.2,0.5-0.7,0.5c-0.5,0-0.7,0-0.8,0.2c-0.1,0.1-0.1,0.5-0.1,1l0,0.2
		V33v0.2c0,0.9,0,2.1,0.3,2.8c0.6,1.1,2.2,1.2,2.7,1.2c0.7,0,2-0.1,2.8-1c0.6-0.7,0.6-1.5,0.6-2.4v-0.1V28.1z"/>
	<path id="XMLID_2907_" fill="#B4B4B4" d="M22,37C21.9,37,21.9,37,22,37c-0.7-0.1-0.7-0.3-0.7-1.1c0-0.1,0-0.2,0-0.3v-3.2v-0.2
		c0-0.9,0-1.9-0.6-2.7c-0.5-0.8-1.3-1.2-2.3-1.2c-1.2,0-2.1,0.8-2.6,1.3c0,0-0.1,0.1-0.1,0.1v-0.9l0,0c0-0.1,0-0.3-0.1-0.4
		c0,0-0.1-0.1-0.3-0.1c-0.2,0-0.3,0.2-0.4,0.3c0,0,0,0-0.1,0.1c-0.3,0.3-1,0.8-1.4,1c0,0,0,0-0.1,0c-0.2,0.1-0.5,0.2-0.5,0.5
		c0,0.2,0.2,0.4,0.4,0.4h0.2c0.2,0,0.3,0,0.4,0.1c0.1,0.1,0.1,0.3,0.1,1.1v0.1v3.8c0,0.1,0,0.2,0,0.3c0,0.8,0,1-0.6,1.1
		c0,0-0.1,0-0.1,0c-0.2,0-0.6,0-0.6,0.5c0,0.2,0.1,0.4,0.5,0.4c0.3,0,0.6,0,0.9,0c0.3,0,0.6,0,0.8,0c0.3,0,0.5,0,0.8,0
		c0.3,0,0.6,0,0.9,0c0.3,0,0.4-0.2,0.4-0.4c0-0.4-0.4-0.4-0.6-0.5c0,0-0.1,0-0.1,0c-0.6-0.1-0.7-0.3-0.6-1.1c0-0.1,0-0.2,0-0.3v-3.4
		c0-0.8,0-1.2,0.5-1.7c0.4-0.5,1-0.8,1.6-0.8c0.7,0,1.2,0.3,1.5,0.8c0.3,0.5,0.3,1.3,0.3,1.9v3.2c0,0.1,0,0.2,0,0.3
		c0,0.8,0,1-0.6,1.1c0,0-0.1,0-0.1,0c-0.2,0-0.6,0-0.6,0.5c0,0.2,0.1,0.4,0.5,0.4c0.3,0,0.6,0,0.9,0c0.3,0,0.6,0,0.8,0
		c0.3,0,0.5,0,0.8,0c0.3,0,0.6,0,0.9,0c0.3,0,0.4-0.2,0.4-0.4C22.6,37.1,22.1,37,22,37"/>
	<path id="XMLID_2904_" fill="#B4B4B4" d="M26.4,35.6c0,0.1,0,0.2,0,0.3c0,0.8,0,1,0.6,1.1c0,0,0.1,0,0.1,0c0.2,0,0.6,0,0.6,0.5
		c0,0.3-0.2,0.4-0.4,0.4c-0.3,0-0.6,0-0.9,0c-0.3,0-0.5,0-0.8,0c-0.3,0-0.6,0-0.8,0c-0.3,0-0.6,0-0.9,0c-0.3,0-0.5-0.2-0.5-0.4
		c0-0.4,0.4-0.5,0.6-0.5c0,0,0.1,0,0.1,0c0.6-0.1,0.6-0.3,0.6-1.1c0-0.1,0-0.2,0-0.3v-3.8v-0.1c0-0.8-0.1-1-0.1-1.1
		c0,0-0.2-0.1-0.4-0.1H24c-0.3,0-0.4-0.1-0.4-0.4c0-0.4,0.3-0.5,0.5-0.5c0,0,0,0,0.1,0c0.4-0.1,1.1-0.6,1.4-1c0,0,0-0.1,0.1-0.1
		c0.1-0.1,0.2-0.3,0.4-0.3c0.1,0,0.2,0.1,0.3,0.1c0.1,0.1,0.1,0.3,0.1,0.4v0V35.6z M24.6,25.9c0-0.7,0.4-1.2,1-1.2
		c0.6,0,1,0.6,1,1.2c0,0.7-0.4,1.2-1,1.2C25,27,24.6,26.6,24.6,25.9"/>
	<path id="XMLID_2903_" fill="#B4B4B4" d="M37.3,28.7c-0.1-0.1-0.2-0.1-0.3-0.1c0,0,0,0-0.1,0h-2.6c-0.1,0-0.5,0-0.5,0.4
		c0,0.4,0.5,0.4,0.7,0.4c0.1,0,0.5,0,0.5,0.3c0,0.2-0.1,0.4-0.2,0.6c0,0.1,0,0.1-0.1,0.2c0,0-1.4,3.4-1.9,4.7
		c-0.5-1.3-1.7-4.5-1.7-4.5l0-0.1C31.1,30.4,31,30,31,29.8c0-0.3,0.3-0.4,0.5-0.4c0,0,0,0,0.1,0c0.2,0,0.4,0,0.5-0.1
		c0.1-0.1,0.1-0.2,0.1-0.3c0-0.1,0-0.2-0.1-0.3c-0.1-0.1-0.3-0.1-0.4-0.1h0h-3.2h0c-0.1,0-0.2,0-0.3,0.1c-0.1,0.1-0.1,0.2-0.1,0.3
		c0,0.3,0.2,0.4,0.5,0.4c0.6,0,0.6,0.2,0.9,0.9l0,0.1c0,0,2.6,7,2.6,7l0.1,0.3c0.1,0.2,0.2,0.3,0.4,0.3c0.3,0,0.4-0.3,0.5-0.5
		c0,0,0,0,0,0l0,0l0,0l2.6-6.2c0-0.1,0.1-0.2,0.1-0.3c0.3-0.7,0.6-1.5,1.2-1.6c0,0,0,0,0.1,0c0.2,0,0.6-0.1,0.6-0.5
		C37.4,28.9,37.4,28.8,37.3,28.7"/>
	<path id="XMLID_2900_" fill="#B4B4B4" d="M39.8,30.4c0.5-0.8,1.3-1.2,2.2-1.2c0.4,0,1,0.1,1.4,0.5c0.3,0.3,0.4,0.7,0.4,1
		c0,0.3-0.1,0.5-0.5,0.6c-0.5,0.1-1.5,0.2-2,0.2h-1.5c0,0-0.1,0-0.1,0c-0.1,0-0.3,0-0.3,0c0,0,0,0,0,0
		C39.4,31.2,39.6,30.6,39.8,30.4 M45.2,35.5c-0.1,0-0.3,0.1-0.4,0.3c-0.4,0.4-1,1-2.2,1c-2.2,0-3.3-2-3.3-4c0-0.3,0-0.4,0.1-0.4
		c0,0,0.2,0,0.4,0h0.1h5.4c0.1,0,0.4,0,0.4-0.5c0-0.7-0.3-1.6-0.7-2.1c-0.6-0.8-1.6-1.3-2.8-1.3c-1.3,0-2.4,0.5-3.4,1.4
		c-0.9,0.9-1.4,2-1.4,3.5c0,2.7,1.9,4.8,4.3,4.8c1.2,0,2.1-0.4,3-1.2c0.7-0.6,0.8-0.9,0.8-1C45.5,35.6,45.4,35.5,45.2,35.5"/>
	<path id="XMLID_2899_" fill="#B4B4B4" d="M51.6,28.5c-1,0-1.6,0.9-2,1.4v-1v0c0-0.1,0-0.3-0.1-0.4c0,0-0.1-0.1-0.3-0.1
		c-0.2,0-0.3,0.2-0.4,0.3c0,0,0,0-0.1,0.1c-0.3,0.3-1,0.8-1.4,1c0,0,0,0-0.1,0c-0.2,0.1-0.5,0.2-0.5,0.5c0,0.2,0.2,0.4,0.4,0.4h0.2
		c0.2,0,0.3,0,0.4,0.1c0.1,0.1,0.1,0.3,0.1,1.1v0.1v3.8c0,0.1,0,0.2,0,0.3c0,0.8,0,1-0.6,1.1c0,0-0.1,0-0.1,0c-0.2,0-0.6,0-0.6,0.5
		c0,0.2,0.1,0.4,0.5,0.4c0.3,0,0.6,0,0.9,0c0.3,0,0.6,0,0.8,0c0.3,0,0.5,0,0.8,0c0.3,0,0.6,0,0.9,0c0.3,0,0.4-0.2,0.4-0.4
		c0-0.4-0.4-0.4-0.6-0.5c0,0-0.1,0-0.1,0c-0.6-0.1-0.6-0.3-0.6-1.1c0-0.1,0-0.2,0-0.3v-3.2v-0.1c0-0.7,0-1.2,0.4-1.8
		c0.2-0.3,0.5-0.6,0.8-0.6c0.1,0,0.2,0.1,0.4,0.3c0.2,0.2,0.4,0.5,0.8,0.5c0.6,0,1-0.4,1-1C52.8,29,52.3,28.5,51.6,28.5"/>
	<path id="XMLID_2898_" fill="#B4B4B4" d="M53.6,35.2L53.6,35.2c0-0.2,0.1-0.6,0.4-0.6c0.4,0,0.5,0.4,0.6,0.9
		c0.2,0.8,0.4,1.8,1.8,1.8c1,0,2-0.6,2-1.8c0-0.9-0.6-1.4-1.6-1.7c0,0-0.2-0.1-0.2-0.1c-1.2-0.4-2.7-1-2.7-2.7c0-0.8,0.4-1.5,1-2
		c0.6-0.5,1.3-0.7,2.3-0.7c0.5,0,1.5,0.1,1.9,0.4c0.4,0.2,0.3,0.6,0.3,0.9c0,0.1,0,0.1,0,0.2c0,0,0,0.1,0,0.1c0,0.4,0,0.8-0.1,1
		C59.2,31,59.1,31,59,31c-0.3,0-0.4-0.3-0.5-0.6c-0.2-0.5-0.5-1.3-1.7-1.3c-0.6,0-1.5,0.5-1.5,1.3c0,0.9,0.9,1.3,1.8,1.6
		c1.3,0.5,2.7,1,2.7,2.9c0,2-1.8,3.1-3.6,3.1c-0.6,0-1.7-0.3-2.4-0.6c-0.4-0.2-0.4-0.5-0.4-0.8l0-0.1C53.5,36.5,53.6,35.2,53.6,35.2
		"/>
	<path id="XMLID_2897_" fill="#B4B4B4" d="M63.3,27c0.6,0,1-0.5,1-1.2c0-0.6-0.4-1.2-1-1.2c-0.6,0-1,0.5-1,1.2
		C62.4,26.6,62.8,27,63.3,27"/>
	<path id="XMLID_2896_" fill="#B4B4B4" d="M64.9,37C64.8,37,64.8,37,64.9,37c-0.7-0.1-0.7-0.3-0.7-1.1c0-0.1,0-0.2,0-0.3v-6.7v0
		c0-0.1,0-0.3-0.1-0.4c0,0-0.1-0.1-0.3-0.1c-0.2,0-0.3,0.2-0.4,0.3c0,0,0,0-0.1,0.1c-0.3,0.3-1,0.8-1.4,1c0,0,0,0-0.1,0
		c-0.2,0.1-0.5,0.2-0.5,0.5c0,0.2,0.2,0.4,0.4,0.4H62c0.2,0,0.3,0,0.4,0.1c0.1,0.1,0.1,0.3,0.1,1.1v0.1v3.8c0,0.1,0,0.2,0,0.3
		c0,0.8,0,1-0.6,1.1c0,0-0.1,0-0.1,0c-0.2,0-0.6,0-0.6,0.5c0,0.2,0.1,0.4,0.5,0.4c0.3,0,0.6,0,0.9,0c0.3,0,0.6,0,0.8,0
		c0.3,0,0.5,0,0.8,0c0.3,0,0.6,0,0.9,0c0.3,0,0.4-0.2,0.4-0.4C65.5,37.1,65.1,37,64.9,37"/>
	<path id="XMLID_2895_" fill="#B4B4B4" d="M70.9,36.5c0-0.2-0.1-0.3-0.3-0.3c-0.1,0-0.2,0.1-0.4,0.2c-0.2,0.2-0.5,0.5-0.9,0.5
		c-0.2,0-0.3-0.1-0.5-0.2c-0.4-0.4-0.4-1.3-0.4-1.9v0v-5.1c0-0.2,0-0.2,0-0.2c0,0,0.2,0,0.2,0c0.1,0,0.1,0,0.2,0h1
		c0.1,0,0.1,0,0.2,0c0.2,0,0.3,0,0.4-0.1c0.1-0.1,0.1-0.3,0.1-0.4c0-0.1,0-0.5-0.4-0.5c0,0-1.8,0-1.8,0c-0.1,0-0.1,0-0.1,0
		c0,0,0,0,0-0.2v-1.4c0-0.4-0.2-0.4-0.3-0.4c-0.2,0-0.3,0.2-0.4,0.3c-0.4,0.9-0.9,1.4-1.6,1.9c0,0,0,0,0,0c-0.1,0.1-0.2,0.2-0.2,0.4
		c0,0.1,0,0.2,0.1,0.3c0.2,0.1,0.4,0.1,0.6,0.1c0,0,0,0,0,0c0,0,0.1,0,0.1,0c0,0,0.1,0,0.1,0c0,0,0,0.1,0,0.2v5.2l0,0.3
		c0,0.8,0,1.7,0.4,2.3c0.3,0.4,0.9,0.7,1.5,0.7c0.6,0,1.3-0.3,1.8-0.8C70.6,37.1,70.9,36.8,70.9,36.5"/>
	<path id="XMLID_2894_" fill="#B4B4B4" d="M80.4,28.6h-2.9c-0.3,0-0.5,0.2-0.5,0.5c0,0.3,0.4,0.3,0.6,0.3c0.5,0,0.7,0.2,0.7,0.5
		c0,0.2-0.1,0.5-0.2,0.7l0,0c0,0-1.3,3.4-1.8,4.7c-0.5-1.3-1.8-4.9-1.8-4.9l0,0c-0.1-0.2-0.2-0.5-0.2-0.7c0-0.4,0.6-0.4,0.7-0.4
		c0.4,0,0.6-0.1,0.6-0.3c0-0.3-0.2-0.5-0.5-0.5h-3.5c-0.3,0-0.5,0.2-0.5,0.5c0,0.3,0.4,0.3,0.6,0.3c0.4,0,0.6,0.4,0.9,1.1l0.1,0.2
		c0,0,2.4,6.2,2.4,6.2c0,0.1,0.1,0.1,0.1,0.2c0.1,0.2,0.2,0.4,0.2,0.6c0,0.1,0,0.3-0.1,0.4c0,0,0,0.1,0,0.1l-0.6,1.6
		c0,0,0,0.1-0.1,0.1c-0.1,0.2-0.2,0.4-0.3,0.4c-0.2,0-0.4,0-0.6,0h-0.1c-0.8,0-0.8,0.7-0.8,1c0,0.3,0.1,0.5,0.2,0.6
		c0.2,0.2,0.6,0.2,1,0.2h0c0.8,0,0.9-0.2,1.1-0.9c0,0,0-0.1,0,0l3.6-9.5c0.2-0.4,0.6-1.6,1-2.1c0.2-0.2,0.5-0.4,0.6-0.4
		c0,0,0.1,0,0.1,0c0.2,0,0.5,0,0.5-0.3C80.8,28.8,80.6,28.6,80.4,28.6"/>
	<g id="XMLID_578_">
		<path id="XMLID_2893_" fill="#B4B4B4" d="M114.3,24.9h-0.5h-13.8H100H86.2h-0.5h-0.2v0.2v0.5c0,6.3,0,21.1,0,21.2
			c0.5,5.2,5.7,13.8,14.3,16.5l0.1,0l0.1,0l0.1,0l0.1,0c8.6-2.7,13.8-11.3,14.3-16.5V25.6v-0.5v-0.2H114.3z"/>
		<g id="XMLID_2864_">
			<path id="XMLID_2892_" fill="#FFFFFF" d="M98.9,54.3c0.3-0.4,0.4-0.9,0.4-0.9c-0.6,0.4-1.6,0.1-1.6,0.1s0,0.3-0.9,0.6
				c-1.3,0.6-2.7,2-0.9,4c0,0-0.8-2.3,0.4-2.9C96.5,55.3,97.5,56.3,98.9,54.3z"/>
			<path id="XMLID_2891_" fill="#FFFFFF" d="M93.3,39.8c0,0,0.4,0.8,0.9,1c0,0-0.9,0.5-1.2,0.8c0,0,0.6,0.5,1.4,0.6
				c0,0-0.8,0.5-1.1,1c0,0,0.6,0.4,1.4,0.3c0,0-0.9,0.6-0.9,1.2c0,0,0.9,0.3,1.5-0.5c0,0-0.6,1-0.2,1.6c0.1,0.2,0.3,0.4,0.3,0.4
				c0.6-0.3,0.6-0.3,0.7-0.9c0-0.3-0.1-0.3,0-1c0-0.5,0.1-1,0.1-1s-1.2-0.2-0.9-2.2c0,0,1.6,1.1,1.8-0.4c0.2-1.8-2.5-0.9-2.3-4.4
				c0,0-1.3,2.3-0.1,3.2C94.6,39.5,93.9,39.4,93.3,39.8z"/>
			<path id="XMLID_2890_" fill="#FFFFFF" d="M94.8,47.6c0,0-0.1,2.1-2.3,2.8c3.7-0.1,4.4-2.9,4.4-2.9c-0.4-0.5-0.4-0.8-0.4-0.8
				s-0.1-0.2-0.1-0.2c-0.2,0.3-1.2,0.6-1.2,0.6s-0.5-0.5-0.7-0.7c-0.4-0.5-0.4-0.9-0.4-0.9C93.5,45.6,93,45,93,45
				c0-0.6,0.2-1.1,0.2-1.1c-0.4-0.2-0.9-0.7-0.9-0.7c0.3-0.6,0.5-0.8,0.5-0.8C92,41.9,92,41.6,92,41.6c0.2-0.5,0.8-0.9,0.8-0.9
				c-0.3-0.4-0.5-1.1-0.5-1.1c0.5-0.5,1-0.7,1-0.7c-0.1-0.3-0.1-0.6,0-0.9c0,0-4.2-2.2-4.7-3.6c0,0-0.2,1.3-0.1,2.1
				c0.1,0.7,1.2,1.9,3.9,3.7c-1.7-0.3-4-1.2-4.5-2.1c0,0,0,1.3,0.3,2.1c0.2,0.6,1.4,1.1,4.1,2.4c-1.3,0.7-3.7-0.1-4.3-0.8
				c0,0,0.4,1.1,0.8,1.8c0.3,0.4,1.4,1.2,4,0.8c-1,1.2-2.8,2.1-4,1.5c0,0,0.1,1.1,0.9,1.5c0.6,0.2,1.7,0.4,3.6-1.1
				c-1.1,2.8-3.9,1.9-3.9,1.9s0.7,1.1,1.4,1.5C91.3,50.2,92.6,49.9,94.8,47.6z"/>
			<path id="XMLID_2889_" fill="#FFFFFF" d="M97.3,48.2C97.3,48.2,97.3,48.2,97.3,48.2C97.3,48.2,97.3,48.2,97.3,48.2z"/>
			<path id="XMLID_2888_" fill="#FFFFFF" d="M98.3,49.9c-0.2-0.6-0.9-1.6-0.9-1.7c0,0-0.1,0.2-0.4,0.8c-1,1.5-1.9,1.4-1.9,1.4
				c0.8,0.4,2.1-0.1,2.1-0.1s-0.2,0.4-0.2,0.5c-0.3,0.8,0.2,1.7,0.2,1.7C96.8,51.2,98.3,49.9,98.3,49.9z"/>
			<path id="XMLID_2887_" fill="#FFFFFF" d="M95.8,53.2c-0.1-0.4-0.4-0.3-0.7-0.2c-0.2,0.1-0.4,0-0.4,0c-0.2-0.1-0.2-0.3,0.1-0.4
				c1.1-0.5,1.4-1.2,1.4-1.2c-0.5,0.1-1-0.1-1-0.1s-1,1.4-1.8,1c-0.3-0.1-0.3-0.5-0.4-0.7c0-0.4-0.5-0.6-0.7-0.3
				c-0.2,0.3,0,0.6,0.3,0.7c0.1,0.1,0.4,0.2,0.3,0.4c-0.1,0.1-0.2,0.1-0.3,0.1c-0.2,0-0.8-0.2-1,0.3c-0.2,0.6,0.5,0.8,0.9,0.5
				c0.4-0.4,1-0.4,1.2-0.1c0.1,0.1,0.2,0.4-0.4,0.8c-0.2,0.1-1.1,0.7-0.5,1.3c0.2,0.2,0.8,0.1,1-0.7c0.1-0.6,0.3-1,0.5-1.1
				c0.1-0.1,0.5-0.2,0.7,0c0.1,0,0.2,0.1,0.2,0.1C95.5,53.8,95.9,53.5,95.8,53.2z"/>
			<path id="XMLID_2886_" fill="#FFFFFF" d="M91.9,51.2c0-0.2,0.2-0.3,0.2-0.3c-0.8-0.3-0.9,0.5-0.9,0.5
				C91.5,50.9,91.9,51.2,91.9,51.2z"/>
			<path id="XMLID_2885_" fill="#FFFFFF" d="M91.2,52.8c-0.8,0.6-0.1,1.3-0.1,1.3c-0.3-0.6,0.2-0.8,0.2-0.8
				C91.1,53,91.2,52.8,91.2,52.8z"/>
			<path id="XMLID_2884_" fill="#FFFFFF" d="M92.4,55.5c-0.3-0.2-0.3-0.4-0.3-0.4c-0.5,0.9,0.4,1.3,0.4,1.3
				C92,55.9,92.4,55.5,92.4,55.5z"/>
			<path id="XMLID_2883_" fill="#FFFFFF" d="M96.2,53.2C96.1,53.2,96.1,53.2,96.2,53.2c-0.1,0,0,0.2-0.1,0.3c0,0,0,0,0.1,0
				c0.1,0.1,0.3,0.2,0.2,0.6C96.4,54.1,96.8,53.6,96.2,53.2z"/>
			<path id="XMLID_2882_" fill="#FFFFFF" d="M104.2,53.2c-0.7,0.4-0.2,0.9-0.2,0.9c-0.1-0.4,0.1-0.5,0.2-0.6c0.1,0,0.1,0,0.1,0
				C104.2,53.3,104.2,53.1,104.2,53.2C104.2,53.1,104.2,53.1,104.2,53.2z"/>
			<path id="XMLID_2881_" fill="#FFFFFF" d="M103.5,54.1c-0.9-0.4-0.9-0.6-0.9-0.6s-1,0.3-1.6-0.1c0,0,0.1,0.5,0.4,0.9
				c1.5,2,2.5,1,2.5,1c1.2,0.5,0.4,2.9,0.4,2.9C106.2,56.1,104.8,54.7,103.5,54.1z"/>
			<path id="XMLID_2880_" fill="#FFFFFF" d="M105.2,41.1c0.3,2-0.9,2.2-0.9,2.2s0.1,0.5,0.1,1c0,0.6,0,0.7,0,1
				c0,0.6,0.1,0.6,0.7,0.9c0,0,0.2-0.2,0.3-0.4c0.3-0.7-0.2-1.6-0.2-1.6c0.6,0.8,1.5,0.5,1.5,0.5c-0.1-0.7-0.9-1.2-0.9-1.2
				c0.8,0.2,1.4-0.3,1.4-0.3c-0.2-0.4-1.1-1-1.1-1c0.8-0.1,1.4-0.6,1.4-0.6c-0.2-0.3-1.2-0.8-1.2-0.8c0.4-0.3,0.9-1,0.9-1
				c-0.6-0.3-1.3-0.3-1.3-0.3c1.2-0.8-0.1-3.2-0.1-3.2c0.2,3.5-2.5,2.6-2.3,4.4C103.6,42.2,105.2,41.1,105.2,41.1z"/>
			<path id="XMLID_2879_" fill="#FFFFFF" d="M111.6,43.7c0.4-0.7,0.8-1.8,0.8-1.8c-0.7,0.7-3,1.5-4.3,0.8c2.7-1.3,3.9-1.8,4.1-2.4
				c0.3-0.8,0.3-2.1,0.3-2.1c-0.5,0.9-2.8,1.8-4.5,2.1c2.7-1.8,3.9-3,3.9-3.7c0.1-0.8-0.1-2.1-0.1-2.1c-0.5,1.4-4.7,3.6-4.7,3.6
				c0,0.3,0,0.6,0,0.9c0,0,0.5,0.2,1,0.7c0,0-0.3,0.7-0.5,1.1c0,0,0.7,0.5,0.8,0.9c0,0,0,0.3-0.7,0.9c0,0,0.2,0.2,0.5,0.8
				c0,0-0.5,0.5-0.9,0.7c0,0,0.2,0.5,0.2,1.1c0,0-0.6,0.5-1.2,0.5c0,0-0.1,0.4-0.4,0.9c-0.1,0.2-0.7,0.7-0.7,0.7s-0.9-0.3-1.2-0.6
				c0,0-0.1,0.2-0.1,0.2s-0.1,0.3-0.4,0.8c0,0,0.7,2.8,4.4,2.9c-2.1-0.7-2.3-2.8-2.3-2.8c2.2,2.3,3.5,2.6,4.1,2.3
				c0.7-0.4,1.4-1.5,1.4-1.5s-2.8,0.9-3.9-1.9c1.9,1.5,3.1,1.3,3.6,1.1c0.8-0.3,0.9-1.5,0.9-1.5c-1.2,0.6-3.1-0.3-4-1.5
				C110.3,44.9,111.4,44.1,111.6,43.7z"/>
			<path id="XMLID_2878_" fill="#FFFFFF" d="M103.1,48.2C103.1,48.2,103.1,48.2,103.1,48.2C103.1,48.2,103.1,48.2,103.1,48.2z"/>
			<path id="XMLID_2877_" fill="#FFFFFF" d="M105.4,50.4c0,0-0.9,0.1-1.9-1.4c-0.4-0.6-0.4-0.7-0.4-0.8c-0.1,0.1-0.7,1-0.9,1.7
				c0,0,1.4,1.2,1.2,2.6c0,0,0.5-1,0.2-1.7c0-0.1-0.2-0.5-0.2-0.5S104.5,50.9,105.4,50.4z"/>
			<path id="XMLID_2876_" fill="#FFFFFF" d="M107.9,52.4c-0.1,0-0.2,0-0.3-0.1c-0.1-0.1,0.1-0.3,0.3-0.4c0.2-0.1,0.5-0.4,0.3-0.7
				c-0.2-0.3-0.7-0.1-0.7,0.3c0,0.2-0.1,0.6-0.4,0.7c-0.8,0.4-1.8-1-1.8-1s-0.5,0.2-1,0.1c0,0,0.2,0.6,1.3,1.2
				c0.3,0.1,0.2,0.3,0.1,0.4c0,0-0.2,0.1-0.4,0c-0.2-0.1-0.6-0.2-0.7,0.2c-0.1,0.4,0.3,0.6,0.7,0.4c0,0,0.1-0.1,0.2-0.1
				c0.2-0.2,0.6-0.1,0.7,0c0.2,0.1,0.4,0.4,0.5,1.1c0.2,0.8,0.8,0.9,1,0.7c0.7-0.6-0.3-1.2-0.5-1.3c-0.6-0.4-0.5-0.7-0.4-0.8
				c0.2-0.3,0.8-0.3,1.2,0.1c0.4,0.3,1,0.1,0.9-0.5C108.7,52.2,108,52.4,107.9,52.4z"/>
			<path id="XMLID_2875_" fill="#FFFFFF" d="M108.3,50.9c0,0,0.2,0.1,0.2,0.3c0,0,0.4-0.3,0.7,0.2C109.2,51.4,109.1,50.6,108.3,50.9
				z"/>
			<path id="XMLID_2874_" fill="#FFFFFF" d="M109.2,53.3c0,0,0.5,0.2,0.2,0.8c0,0,0.7-0.7-0.1-1.3C109.2,52.8,109.3,53,109.2,53.3z"
				/>
			<path id="XMLID_2873_" fill="#FFFFFF" d="M108,55.5c0,0,0.4,0.4-0.1,0.8c0,0,0.9-0.4,0.4-1.3C108.2,55.1,108.2,55.3,108,55.5z"/>
			<path id="XMLID_2872_" fill="#FFFFFF" d="M103.6,56.4c-2.1,0.2-3.1-2-3.1-2c-0.1,0.1-0.2,0.2-0.4,0.2c-0.1-0.1-0.2-0.1-0.4-0.2
				c0,0-0.9,2.2-3.1,2c0,0,0.1,0.5,1,0.5c0,0-1.4,0.7-0.6,1.3c0.5,0.4,1-0.8,1-0.8s0.1,1.1,1,1.2c0,0-1.5-0.9,0.1-2.9
				c-0.1,1.4,0.3,2.7,1,2.7c0.7,0,1.2-1.3,1-2.7c1.5,2,0.1,2.9,0.1,2.9c1,0,1-1.2,1-1.2s0.4,1.2,1,0.8c0.8-0.7-0.6-1.3-0.6-1.3
				C103.5,56.9,103.6,56.4,103.6,56.4z"/>
			<path id="XMLID_2869_" fill="#FFFFFF" d="M97.3,37.6c0.1,0,2.1,0,2.3-0.1c0,0.2,0,0.5-0.4,0.6h-1.6c0,0,0,0.4,0.6,0.2
				c0.1,0,0.6-0.2,0.7,0.1c0.1,0.2,0.4,0.7-0.6,0.8c0,0,1.4,0.1,1.5-1.1c0,0,0.1,0.9,0.4,0.9c0.3,0,0.3-0.9,0.3-0.9
				c0.5,1.3,1.7,1.4,1.7,1.4c-1-0.7-1-2.6-0.9-2.7c0.1-0.9,0.9-0.9,0.9-1.4c0.1-0.8-0.8-0.6-0.8-0.6s0.4,0,0.5,0.2
				c0.2,0.4-0.6,0.5-0.6,0.5c-0.9,0.2-1.2-0.3-1.6-0.4c-0.3-0.1-0.4,0.2-0.5,0.2c-0.1,0.1-1.5,0.2-1.8,0.5c-0.3,0.4-0.3,0.8-0.1,1.1
				c0,0,0.1-0.5,0.7-0.5c0.5,0,1.4,0.7,1.6,1.1c-0.2,0-2.3,0.1-2.5-0.1c-0.2-0.1-0.4-0.4-0.3-0.5c0,0-0.1,0.5,0.1,0.7
				C97.1,37.7,97.2,37.6,97.3,37.6z M99.5,36.4c-0.1,0-0.3-0.1-0.3-0.3c0,0,0-0.1,0-0.1l-0.6,0l1.1-0.4l0.1,0l0,0.1l0.1,0.3l0,0.1
				l-0.1,0l-0.2,0c0,0,0,0.1,0,0.1C99.8,36.3,99.7,36.4,99.5,36.4z"/>
			<path id="XMLID_2868_" fill="#FFFFFF" d="M102,43.9c0-0.1,0.1-0.2,0-0.3c-0.1-0.2-0.3-0.2-0.4-0.1l-0.1,0l0,0c0,0,0,0,0,0.1
				c0,0.1,0,0.2-0.1,0.3c-0.1,0-0.2,0.1-0.3,0.1h-0.7v-1.1c0-0.1,0-0.2,0.1-0.3c0.1-0.1,0.2-0.1,0.3-0.1c0.1,0,0.1,0,0.1,0l0,0
				l0-0.1c0-0.1,0.1-0.3-0.1-0.4c-0.1-0.1-0.2-0.1-0.3,0c0.1-0.3-0.2-0.5-0.2-0.5c0,0,0,0,0,0h0h0l0,0c0,0-0.3,0.2-0.2,0.5
				c-0.1,0-0.2-0.1-0.3,0c-0.2,0.1-0.2,0.3-0.1,0.4l0,0.1l0,0c0,0,0.1,0,0.1,0c0.1,0,0.2,0,0.3,0.1c0,0.1,0.1,0.2,0.1,0.3l0,0v0v1.1
				h-0.8c-0.1,0-0.2,0-0.3-0.1c-0.1-0.1-0.1-0.2-0.1-0.3c0-0.1,0-0.1,0-0.1l0,0l0,0c-0.1,0-0.3-0.1-0.4,0.1c-0.1,0.1-0.1,0.2,0,0.3
				c-0.3-0.1-0.5,0.2-0.5,0.2l0,0v0v0l0,0c0,0,0.2,0.3,0.5,0.2c0,0.1-0.1,0.2,0,0.3c0.1,0.2,0.3,0.2,0.4,0.1l0,0l0,0c0,0,0,0,0-0.1
				c0-0.1,0-0.2,0.1-0.3c0.1,0,0.2-0.1,0.3-0.1l0,0h0h0.8v2c0,0,0,0,0,0c0,0.1,0,0.2-0.1,0.3c-0.1,0.1-0.2,0.1-0.3,0.1
				c-0.1,0-0.1,0-0.1,0l0,0l0,0c0,0.1-0.1,0.3,0.1,0.4c0.1,0.1,0.2,0.1,0.3,0c-0.1,0.3,0.2,0.5,0.2,0.5l0,0h0h0l0,0
				c0,0,0.3-0.2,0.2-0.5c0.1,0,0.2,0.1,0.3,0c0.2-0.1,0.2-0.3,0.1-0.4l0,0l0,0c0,0-0.1,0-0.1,0c-0.1,0-0.2,0-0.3-0.1
				c0-0.1-0.1-0.2-0.1-0.3v-2h0.7c0,0,0,0,0,0c0.1,0,0.2,0,0.3,0.1c0.1,0.1,0.1,0.2,0.1,0.3c0,0.1,0,0.1,0,0.1l0,0l0.1,0
				c0.1,0,0.3,0.1,0.4-0.1c0.1-0.1,0.1-0.2,0-0.3c0.3,0.1,0.5-0.2,0.5-0.2l0,0v0v0l0,0C102.5,44.1,102.3,43.8,102,43.9z"/>
			<path id="XMLID_2865_" fill="#FFFFFF" d="M102,40.3c-0.4,0-1.1-0.2-1.3-0.5c0,0-0.2,0.3-0.5,0.4c-0.4-0.1-0.5-0.4-0.5-0.4
				c-0.3,0.3-0.9,0.5-1.3,0.5c-0.8,2.2-2.7,3.6-1,6.6c1.8,3.1,3,3.6,0.6,5.7c0,0,1.6,0.4,1.9-0.9c0,0-0.1,1.5,0.3,1.9
				c0.4-0.4,0.3-1.9,0.3-1.9c0.4,1.4,1.9,0.9,1.9,0.9c-2.5-2.1-1.2-2.6,0.6-5.7C104.7,43.8,102.9,42.5,102,40.3z M102.5,44.8
				c0,0.1-0.1,0.1-0.1,0.2c-0.3,0.4-0.7,0.4-1,0.3c-0.2-0.1-0.2-0.1-0.3-0.2c0,0,0,0,0,0L101,45v1l0.1-0.1c0,0,0.2,0.2,0.2,0.2
				c0,0,0,0,0,0c0,0.1,0.1,0.1,0.2,0.3c0.1,0.3,0.1,0.7-0.3,1c-0.1,0-0.1,0.1-0.2,0.1c-0.1,0.2-0.2,0.4-0.6,0.6l-0.1,0.1l-0.1-0.1
				c-0.4-0.2-0.5-0.4-0.6-0.6c-0.1,0-0.1-0.1-0.2-0.1c-0.4-0.3-0.4-0.7-0.3-1c0.1-0.2,0.1-0.2,0.2-0.3c0,0,0,0,0,0l0.2-0.2l0.1,0.1
				v-1c-0.1,0-0.1,0.1-0.1,0.1c0,0,0,0,0,0c-0.1,0-0.1,0.1-0.3,0.2c-0.3,0.1-0.7,0.1-1-0.3c0-0.1-0.1-0.1-0.1-0.2
				c-0.2-0.1-0.4-0.2-0.6-0.6l-0.1-0.1l0.1-0.1c0.2-0.4,0.4-0.5,0.6-0.6c0-0.1,0.1-0.1,0.1-0.2c0.3-0.4,0.7-0.4,1-0.3
				c0.1,0,0.2,0.1,0.2,0.1l-0.1-0.1c0,0,0,0,0,0c-0.1-0.1-0.1-0.1-0.2-0.3c-0.1-0.3-0.1-0.7,0.3-1c0.1,0,0.1-0.1,0.2-0.1
				c0.1-0.2,0.2-0.4,0.6-0.6l0.1-0.1l0.1,0.1c0.4,0.2,0.5,0.4,0.6,0.6c0.1,0,0.1,0.1,0.2,0.1c0.4,0.3,0.4,0.7,0.3,1
				c-0.1,0.2-0.1,0.2-0.2,0.3c0,0,0,0,0,0l-0.1,0.1c0.1,0,0.1-0.1,0.2-0.1c0.3-0.1,0.7-0.1,1,0.3c0,0.1,0.1,0.1,0.1,0.2
				c0.2,0.1,0.4,0.2,0.6,0.6l0.1,0.1l-0.1,0.1C102.9,44.6,102.7,44.7,102.5,44.8z"/>
		</g>
		<rect id="XMLID_586_" x="86.2" y="25.6" fill="#FFFFFF" width="27.6" height="7.9"/>
		<g id="XMLID_579_">
			<path id="XMLID_585_" fill="#B4B4B4" d="M92.8,29.3l0.2-0.8l-0.8,0.2l-0.1-0.4l-0.5,0.6l0.1-1.5l-0.4,0.4l-0.5-1l-0.5,1l-0.4-0.4
				l0.1,1.5l-0.5-0.6l-0.1,0.4l-0.8-0.2l0.2,0.8l-0.3,0.1l1.2,1.2L89.3,31l1.2-0.1c0,0,0.1,0.4,0.1,0.9c0,0.3-0.2,0.4-0.3,0.5h0.5
				h0.3c-0.1-0.1-0.3-0.2-0.3-0.5c0-0.5,0.1-0.9,0.1-0.9l1.2,0.1l-0.2-0.4l1.2-1.2L92.8,29.3z"/>
			<path id="XMLID_581_" fill="#B4B4B4" d="M104.1,27.1l-0.6,0c0,0-0.9,0-1.3-0.1c-0.4-0.2-1.6-0.6-2.1,0.2
				c-0.5-0.8-1.7-0.4-2.1-0.2c-0.4,0.2-1.3,0.1-1.3,0.1l-0.6,0v0.7h-0.8v4.6h4c0,0,0.3-0.6,0.9-0.6c0.6,0,0.9,0.6,0.9,0.6h4v-4.6
				h-0.8V27.1z M99.8,30.7c-0.6-0.1-1.2,0.2-1.8,0.4c-0.2,0.1-0.5,0.2-0.6,0.2c-0.1,0-0.5,0-1,0v-3.8l0.2,0c0,0,0.9,0,1.5-0.2
				c0.6-0.2,1.3-0.4,1.6,0.1c0,0,0,0,0,0.1V30.7z M103.7,31.3c-0.5,0-0.9,0-1,0c-0.1,0-0.4-0.1-0.6-0.2l0,0
				c-0.5-0.2-1.2-0.5-1.7-0.4v-3.2l0-0.1c0.3-0.5,1.1-0.3,1.6-0.1c0.5,0.2,1.4,0.2,1.5,0.2v0c0,0,0.1,0,0.1,0h0.1V31.3z"/>
			<path id="XMLID_580_" fill="#B4B4B4" d="M110.7,31l-0.2-0.4l1.2-1.2l-0.3-0.1l0.2-0.8l-0.8,0.2l-0.1-0.4l-0.5,0.6l0.1-1.5
				l-0.4,0.4l-0.5-1l-0.5,1l-0.4-0.4l0.1,1.5l-0.5-0.6l-0.1,0.4l-0.8-0.2l0.2,0.8l-0.3,0.1l1.2,1.2l-0.2,0.4l1.2-0.1
				c0,0,0.1,0.4,0.1,0.9c0,0.3-0.2,0.4-0.3,0.5h0.3h0.5c-0.1-0.1-0.3-0.2-0.3-0.5c0-0.5,0.1-0.9,0.1-0.9L110.7,31z"/>
		</g>
	</g>
</g>
</svg>
