<?xml version="1.0" encoding="utf-8"?>
<!-- Generator: Adobe Illustrator 18.1.1, SVG Export Plug-In . SVG Version: 6.00 Build 0)  -->
<svg version="1.1" id="Layer_1" xmlns="http://www.w3.org/2000/svg" xmlns:xlink="http://www.w3.org/1999/xlink" x="0px" y="0px"
	 viewBox="0 0 121 48.4" enable-background="new 0 0 121 48.4" xml:space="preserve">
<g id="XMLID_2921_">
	<g id="XMLID_2950_">
		<path id="XMLID_2967_" fill="#B4B4B4" d="M0,21.2V0h7.1l3.3,14.4h0.1L14,0h6.9v21.2h-4.3V4.8h-0.1l-4.1,16.3H8.2L4.4,4.8H4.3v16.3
			H0z"/>
		<path id="XMLID_2965_" fill="#B4B4B4" d="M31.7,11.6c0-2.2-0.6-2.9-1.8-2.9c-1.8,0-1.9,1.6-1.9,4.6c0,4.5,0.4,5.5,1.9,5.5
			c1.3,0,1.9-1.2,1.9-3.1h4.1c0,4-2.2,5.7-6,5.7c-5.3,0-6-3.3-6-7.9c0-4,0.6-7.5,6-7.5c3.8,0,6,1.7,6,5.6H31.7z"/>
		<path id="XMLID_2963_" fill="#B4B4B4" d="M38.7,21.2V0h7.1l3.3,14.4h0.1L52.7,0h6.9v21.2h-4.3V4.8h-0.1l-4.1,16.3h-4.2L43.1,4.8
			H43v16.3H38.7z"/>
		<path id="XMLID_2960_" fill="#B4B4B4" d="M74.1,18.4c0,0.9,0.1,1.8,0.2,2.8h-3.8l-0.2-2h-0.1c-0.9,1.5-2.1,2.3-3.9,2.3
			c-2.9,0-3.9-2.1-3.9-4.7c0-4.9,3.8-5.1,7.6-5v-1.1c0-1.3-0.2-2.2-1.7-2.2c-1.4,0-1.6,1.1-1.6,2.3h-4c0-1.8,0.6-2.9,1.5-3.6
			c0.9-0.7,2.3-1,3.9-1c5.2,0,5.9,2.3,5.9,5V18.4z M66.4,16.6c0,1.1,0.2,2.3,1.5,2.3c2.4,0,2.1-3.3,2.1-4.9
			C68,14.1,66.4,13.9,66.4,16.6z"/>
		<path id="XMLID_2958_" fill="#B4B4B4" d="M80.5,16.4c0,0.7,0,1.3,0.2,1.8c0.2,0.5,0.7,0.7,1.5,0.7c0.8,0,1.5-0.5,1.5-1.5
			c0-3.1-7.3-2.4-7.3-7.2c0-3.2,3.2-4.2,5.8-4.2c2.8,0,5.4,1.3,5.1,4.5h-4c0-1-0.1-1.6-0.4-1.9c-0.3-0.3-0.6-0.3-1.1-0.3
			C81,8.4,80.5,9,80.5,10c0,2.3,7.3,2.2,7.3,7c0,2.6-2.1,4.5-5.5,4.5c-3.6,0-6-0.9-5.8-5H80.5z"/>
		<path id="XMLID_2956_" fill="#B4B4B4" d="M89,6.4h1.7V4l4.1-1.8v4.2H97v2.6h-2.1v7.9c0,1.1,0,1.8,1.3,1.8c0.3,0,0.5,0,0.7-0.1v2.5
			c-0.6,0.1-1.1,0.1-2.1,0.1c-3.6,0-4-2.4-4-3.3V8.9H89V6.4z"/>
		<path id="XMLID_2953_" fill="#B4B4B4" d="M102.7,14.4c0,1.8,0.1,4.4,1.9,4.4c1.5,0,1.8-1.4,1.8-2.6h4.2c-0.1,1.6-0.6,2.9-1.6,3.8
			c-1,0.9-2.4,1.4-4.4,1.4c-5.3,0-6-3.3-6-7.9c0-4,0.6-7.5,6-7.5c5.6,0,6.2,3.6,6,8.4H102.7z M106.4,12.1c0-1.4,0.1-3.5-1.9-3.5
			c-1.9,0-1.9,2.2-1.9,3.5H106.4z"/>
		<path id="XMLID_2951_" fill="#B4B4B4" d="M117.1,6.4v1.9h0.1c0.8-1.7,2.2-2.2,3.8-2.2v3.7c-3.6-0.2-3.7,1.9-3.7,3.3v8.1h-4.1V6.4
			H117.1z"/>
	</g>
	<g id="XMLID_2924_">
		<path id="XMLID_2948_" fill="#B4B4B4" d="M6.4,39.9v-5.7h3v14.2h-3v-6.3H3v6.3H0V34.2h3v5.7H6.4z"/>
		<path id="XMLID_2946_" fill="#B4B4B4" d="M11.4,48.4V34.2h7.7v2.2h-4.8v3.5h4.4v2.2h-4.4v4.2h4.9v2.2H11.4z"/>
		<path id="XMLID_2943_" fill="#B4B4B4" d="M19.7,48.4l3.9-14.2h3.9l3.9,14.2h-3.1l-0.8-3.1h-4.1l-0.8,3.1H19.7z M25.4,37L25.4,37
			L24,43.1h2.8L25.4,37z"/>
		<path id="XMLID_2941_" fill="#B4B4B4" d="M32.3,48.4V34.2h3v11.8h4.4v2.4H32.3z"/>
		<path id="XMLID_2939_" fill="#B4B4B4" d="M47.8,34.2v2.4h-3.3v11.8h-3V36.6h-3.3v-2.4H47.8z"/>
		<path id="XMLID_2937_" fill="#B4B4B4" d="M55.2,39.9v-5.7h3v14.2h-3v-6.3h-3.4v6.3h-3V34.2h3v5.7H55.2z"/>
		<path id="XMLID_2935_" fill="#B4B4B4" d="M65.3,48.4V34.2h7.4v2.2h-4.4v3.6h4.2v2.2h-4.2v6.2H65.3z"/>
		<path id="XMLID_2932_" fill="#B4B4B4" d="M73.4,41.3c0-3.8,0-7.3,4.9-7.3c4.9,0,4.9,3.6,4.9,7.3c0,3.7,0,7.3-4.9,7.3
			C73.4,48.7,73.4,45,73.4,41.3z M80.2,41.3c0-3.6-0.2-5.2-1.9-5.2c-1.7,0-1.9,1.6-1.9,5.2c0,3.6,0.2,5.2,1.9,5.2
			C80,46.5,80.2,45,80.2,41.3z"/>
		<path id="XMLID_2929_" fill="#B4B4B4" d="M88,48.4h-3V34.2h5.5c2,0,3.3,1.3,3.3,3.7c0,1.8-0.7,3.2-2.6,3.5v0
			c0.6,0.1,2.6,0.2,2.6,2.8c0,0.9,0.1,3.6,0.3,4.2h-2.9c-0.4-0.9-0.3-1.8-0.3-2.8c0-1.7,0.2-3.1-2.1-3.1H88V48.4z M88,40.4h1.3
			c1.2,0,1.5-1.2,1.5-2.1c0-1.4-0.6-1.9-1.5-1.9H88V40.4z"/>
		<path id="XMLID_2927_" fill="#B4B4B4" d="M105.1,34.2v10.1c0,2.1-1.2,4.4-4.8,4.4c-3.3,0-4.8-1.7-4.8-4.4V34.2h3v9.9
			c0,1.8,0.7,2.4,1.8,2.4c1.3,0,1.9-0.9,1.9-2.4v-9.9H105.1z"/>
		<path id="XMLID_2925_" fill="#B4B4B4" d="M107,48.4V34.2h4.8l2.2,9.7h0l2.4-9.7h4.6v14.2h-2.9v-11h0l-2.7,11h-2.8l-2.6-11h0v11
			H107z"/>
	</g>
	<g id="XMLID_2922_">
		<rect id="XMLID_2923_" x="0" y="27" fill="#B4B4B4" width="121" height="0.7"/>
	</g>
</g>
</svg>
