<?xml version="1.0" encoding="utf-8"?>
<!-- Generator: Adobe Illustrator 18.1.1, SVG Export Plug-In . SVG Version: 6.00 Build 0)  -->
<svg version="1.1" id="Layer_1" xmlns="http://www.w3.org/2000/svg" xmlns:xlink="http://www.w3.org/1999/xlink" x="0px" y="0px"
	 viewBox="0 0 33.7 32.6" enable-background="new 0 0 33.7 32.6" xml:space="preserve">
<path id="XMLID_551_" fill="#4287C7" d="M33.6,29.1c-0.6-1.1-4.3-8.2-9.5-10.7c1.5-1.1,2.8-2.6,4-4.5c0.1-0.2,0.1-0.5,0-0.8
	c-0.1-0.2-0.4-0.4-0.7-0.4c-2.2,0-4.1,0.4-5.7,1.2c0.8-6-3.6-13.3-3.8-13.7C17.7,0.1,17.5,0,17.2,0h0c-0.3,0-0.5,0.1-0.6,0.4
	c-0.3,0.4-4.6,7.9-4.2,13.8c-1.7-0.8-3.7-1.3-6-1.3c-0.3,0-0.5,0.1-0.7,0.4c-0.1,0.2-0.1,0.5,0,0.8c1.1,1.9,2.4,3.4,3.9,4.4
	C4.2,21,0.3,28.9,0.1,29.3C0,29.5,0,29.8,0.1,30c0.1,0.2,0.4,0.4,0.7,0.3c0.5,0,8.8-0.4,13.5-3.9c0.2,1.9,0.8,3.8,1.9,5.7
	c0.1,0.2,0.4,0.4,0.7,0.4c0.3,0,0.5-0.1,0.7-0.4c1.1-2,1.7-3.9,1.9-5.7c4.8,3.5,13,3.9,13.5,3.9c0,0,0,0,0,0s0,0,0,0
	c0.4,0,0.8-0.3,0.8-0.8C33.7,29.4,33.7,29.3,33.6,29.1z M22.3,17.8c-0.5-0.1-1-0.2-1.6-0.2c-0.1,0-0.2,0-0.4,0
	c0.3-0.5,0.6-1.1,0.8-1.7c1.3-0.8,2.9-1.3,4.8-1.5C24.9,15.9,23.7,17.1,22.3,17.8z M17.2,2.3c1.3,2.4,3.8,8.2,2.8,12.5
	c-0.3,1.3-1,2.4-1.9,3.2c-0.6-1.6-0.7-3-0.7-3c0-0.2-0.2-0.4-0.5-0.4c-0.3,0-0.5,0.2-0.5,0.5c0,0-0.1,1.4-0.7,3
	C11.6,14.3,15.6,5.5,17.2,2.3z M7.9,14.4c1.9,0.2,3.5,0.7,4.9,1.6c0.2,0.6,0.4,1.1,0.7,1.6c-0.1,0-0.3,0-0.4,0c-0.5,0-1,0.1-1.5,0.2
	C10.2,17,8.9,15.9,7.9,14.4z M11.5,19.4c0.1,0,0.2,0,0.3-0.1c0.4-0.1,0.8-0.2,1.2-0.2c0.6,0,1.2,0.1,1.8,0.3c-0.5,0.7-1.1,1.4-1.9,2
	c-0.2,0.1-0.3,0.4-0.1,0.6c0.1,0.2,0.4,0.3,0.6,0.2c0.3-0.1,0.5-0.2,0.7-0.3c0.8-0.4,1.4-0.6,1.9-0.8c-0.7,5.7-10.4,7.2-14,7.6
	C3.5,26.2,7.2,20.5,11.5,19.4z M16.9,30.1c-0.8-1.7-1.1-3.4-1.1-5c0.4-0.5,0.8-1,1.1-1.5c0.3,0.6,0.7,1.1,1.1,1.5
	C18,26.7,17.6,28.4,16.9,30.1z M17.7,21.2c0.7,0.2,1.5,0.5,2.7,1.1c0.1,0,0.1,0,0.2,0h0c0.3,0,0.5-0.2,0.5-0.5
	c0-0.2-0.1-0.4-0.3-0.4c-0.8-0.5-1.4-1.2-1.9-1.9c0.6-0.2,1.2-0.3,1.9-0.3c4.9,0,9.3,6.8,10.9,9.6C28,28.4,18.4,26.9,17.7,21.2z"/>
</svg>
