<?xml version="1.0" encoding="utf-8"?>
<!-- Generator: Adobe Illustrator 18.1.1, SVG Export Plug-In . SVG Version: 6.00 Build 0)  -->
<svg version="1.1" id="Layer_1" xmlns="http://www.w3.org/2000/svg" xmlns:xlink="http://www.w3.org/1999/xlink" x="0px" y="0px"
	 viewBox="0 0 19 18" enable-background="new 0 0 19 18" xml:space="preserve">
<g id="XMLID_964_">
	<polygon id="XMLID_2394_" fill="#FFFFFF" points="9.5,13.6 4.6,16.7 6.1,11.1 1.6,7.4 7.4,7.1 9.5,1.7 11.6,7.1 17.4,7.4 
		12.9,11.1 14.4,16.7 	"/>
	<g id="XMLID_1907_">
		<path id="XMLID_1908_" fill="#4187C7" d="M9.5,3.4l1.4,3.5l0.3,0.7l0.8,0L15.8,8l-2.9,2.4l-0.6,0.5l0.2,0.8l0.9,3.7l-3.2-2
			l-0.7-0.4l-0.7,0.4l-3.2,2l0.9-3.7l0.2-0.8l-0.6-0.5L3.2,8L7,7.7l0.8,0l0.3-0.7L9.5,3.4 M9.5,0L7,6.5L0,6.9l5.4,4.4l-1.7,6.7
			l5.9-3.7l5.9,3.7l-1.7-6.7L19,6.9l-7-0.4L9.5,0L9.5,0z"/>
	</g>
</g>
</svg>
