<?xml version="1.0" encoding="utf-8"?>
<!-- Generator: Adobe Illustrator 18.1.1, SVG Export Plug-In . SVG Version: 6.00 Build 0)  -->
<svg version="1.1" id="Layer_1" xmlns="http://www.w3.org/2000/svg" xmlns:xlink="http://www.w3.org/1999/xlink" x="0px" y="0px"
	 viewBox="0 0 25.7 13.5" enable-background="new 0 0 25.7 13.5" xml:space="preserve">
<g id="XMLID_758_">
	<path id="XMLID_760_" fill="#4187C7" d="M12.8,1c6.4,0,11.5,5.8,11.5,5.8s-5.1,5.8-11.5,5.8c-6.4,0-11.5-5.8-11.5-5.8S6.5,1,12.8,1
		 M12.8,0C6.1,0,0.8,5.8,0.6,6.1L0,6.8l0.6,0.7c0.2,0.2,5.5,6.1,12.2,6.1c6.7,0,12-5.8,12.2-6.1l0.6-0.7l-0.6-0.7
		C24.9,5.8,19.6,0,12.8,0L12.8,0z"/>
	<g id="XMLID_2336_">
		<path id="XMLID_759_" fill="#4187C7" d="M12.8,1c3.2,0,5.8,2.6,5.8,5.8s-2.6,5.8-5.8,5.8c-3.2,0-5.8-2.6-5.8-5.8S9.7,1,12.8,1
			 M12.8,0C9.1,0,6.1,3,6.1,6.8s3,6.8,6.8,6.8s6.8-3,6.8-6.8S16.6,0,12.8,0L12.8,0z"/>
		<g id="XMLID_2337_">
			<polygon id="XMLID_2369_" fill="#4187C7" points="16.3,5.1 15.3,4.1 12,7.4 10.4,5.8 9.3,6.8 12,9.4 12,9.4 12,9.4 			"/>
		</g>
	</g>
</g>
</svg>
